<svg width="38" height="38" viewBox="0 0 38 38" fill="none" xmlns="http://www.w3.org/2000/svg">
<g filter="url(#filter0_d_712_437)">
<rect x="1" width="36" height="36" rx="5" fill="#F6F8F8"/>
</g>
<path d="M16 24H22C22.2833 24 22.5208 23.9042 22.7125 23.7125C22.9042 23.5208 23 23.2833 23 23C23 22.7167 22.9042 22.4792 22.7125 22.2875C22.5208 22.0958 22.2833 22 22 22H16C15.7167 22 15.4792 22.0958 15.2875 22.2875C15.0958 22.4792 15 22.7167 15 23C15 23.2833 15.0958 23.5208 15.2875 23.7125C15.4792 23.9042 15.7167 24 16 24ZM16 20H22C22.2833 20 22.5208 19.9042 22.7125 19.7125C22.9042 19.5208 23 19.2833 23 19C23 18.7167 22.9042 18.4792 22.7125 18.2875C22.5208 18.0958 22.2833 18 22 18H16C15.7167 18 15.4792 18.0958 15.2875 18.2875C15.0958 18.4792 15 18.7167 15 19C15 19.2833 15.0958 19.5208 15.2875 19.7125C15.4792 19.9042 15.7167 20 16 20ZM13 28C12.45 28 11.9792 27.8042 11.5875 27.4125C11.1958 27.0208 11 26.55 11 26V10C11 9.45 11.1958 8.97917 11.5875 8.5875C11.9792 8.19583 12.45 8 13 8H20.175C20.4417 8 20.6958 8.05 20.9375 8.15C21.1792 8.25 21.3917 8.39167 21.575 8.575L26.425 13.425C26.6083 13.6083 26.75 13.8208 26.85 14.0625C26.95 14.3042 27 14.5583 27 14.825V26C27 26.55 26.8042 27.0208 26.4125 27.4125C26.0208 27.8042 25.55 28 25 28H13ZM20 14V10H13V26H25V15H21C20.7167 15 20.4792 14.9042 20.2875 14.7125C20.0958 14.5208 20 14.2833 20 14Z" fill="#313265"/>
<defs>
<filter id="filter0_d_712_437" x="0" y="0" width="38" height="38" filterUnits="userSpaceOnUse" color-interpolation-filters="sRGB">
<feFlood flood-opacity="0" result="BackgroundImageFix"/>
<feColorMatrix in="SourceAlpha" type="matrix" values="0 0 0 0 0 0 0 0 0 0 0 0 0 0 0 0 0 0 127 0" result="hardAlpha"/>
<feOffset dy="1"/>
<feGaussianBlur stdDeviation="0.5"/>
<feComposite in2="hardAlpha" operator="out"/>
<feColorMatrix type="matrix" values="0 0 0 0 0 0 0 0 0 0 0 0 0 0 0 0 0 0 0.25 0"/>
<feBlend mode="normal" in2="BackgroundImageFix" result="effect1_dropShadow_712_437"/>
<feBlend mode="normal" in="SourceGraphic" in2="effect1_dropShadow_712_437" result="shape"/>
</filter>
</defs>
</svg>
