<svg width="38" height="38" viewBox="0 0 38 38" fill="none" xmlns="http://www.w3.org/2000/svg">
<g filter="url(#filter0_d_2002_278)">
<rect x="1" width="36" height="36" rx="5" fill="#F6F8F8"/>
</g>
<path d="M19 23C19.2833 23 19.5208 22.9042 19.7125 22.7125C19.9042 22.5208 20 22.2833 20 22V18C20 17.7167 19.9042 17.4792 19.7125 17.2875C19.5208 17.0958 19.2833 17 19 17C18.7167 17 18.4792 17.0958 18.2875 17.2875C18.0958 17.4792 18 17.7167 18 18V22C18 22.2833 18.0958 22.5208 18.2875 22.7125C18.4792 22.9042 18.7167 23 19 23ZM19 15C19.2833 15 19.5208 14.9042 19.7125 14.7125C19.9042 14.5208 20 14.2833 20 14C20 13.7167 19.9042 13.4792 19.7125 13.2875C19.5208 13.0958 19.2833 13 19 13C18.7167 13 18.4792 13.0958 18.2875 13.2875C18.0958 13.4792 18 13.7167 18 14C18 14.2833 18.0958 14.5208 18.2875 14.7125C18.4792 14.9042 18.7167 15 19 15ZM19 28C17.6167 28 16.3167 27.7375 15.1 27.2125C13.8833 26.6875 12.825 25.975 11.925 25.075C11.025 24.175 10.3125 23.1167 9.7875 21.9C9.2625 20.6833 9 19.3833 9 18C9 16.6167 9.2625 15.3167 9.7875 14.1C10.3125 12.8833 11.025 11.825 11.925 10.925C12.825 10.025 13.8833 9.3125 15.1 8.7875C16.3167 8.2625 17.6167 8 19 8C20.3833 8 21.6833 8.2625 22.9 8.7875C24.1167 9.3125 25.175 10.025 26.075 10.925C26.975 11.825 27.6875 12.8833 28.2125 14.1C28.7375 15.3167 29 16.6167 29 18C29 19.3833 28.7375 20.6833 28.2125 21.9C27.6875 23.1167 26.975 24.175 26.075 25.075C25.175 25.975 24.1167 26.6875 22.9 27.2125C21.6833 27.7375 20.3833 28 19 28ZM19 26C21.2333 26 23.125 25.225 24.675 23.675C26.225 22.125 27 20.2333 27 18C27 15.7667 26.225 13.875 24.675 12.325C23.125 10.775 21.2333 10 19 10C16.7667 10 14.875 10.775 13.325 12.325C11.775 13.875 11 15.7667 11 18C11 20.2333 11.775 22.125 13.325 23.675C14.875 25.225 16.7667 26 19 26Z" fill="#313265"/>
<defs>
<filter id="filter0_d_2002_278" x="0" y="0" width="38" height="38" filterUnits="userSpaceOnUse" color-interpolation-filters="sRGB">
<feFlood flood-opacity="0" result="BackgroundImageFix"/>
<feColorMatrix in="SourceAlpha" type="matrix" values="0 0 0 0 0 0 0 0 0 0 0 0 0 0 0 0 0 0 127 0" result="hardAlpha"/>
<feOffset dy="1"/>
<feGaussianBlur stdDeviation="0.5"/>
<feComposite in2="hardAlpha" operator="out"/>
<feColorMatrix type="matrix" values="0 0 0 0 0 0 0 0 0 0 0 0 0 0 0 0 0 0 0.25 0"/>
<feBlend mode="normal" in2="BackgroundImageFix" result="effect1_dropShadow_2002_278"/>
<feBlend mode="normal" in="SourceGraphic" in2="effect1_dropShadow_2002_278" result="shape"/>
</filter>
</defs>
</svg>
