<svg width="640" height="312" viewBox="0 0 640 312" fill="none" xmlns="http://www.w3.org/2000/svg">
<path d="M186.829 0H136.567C133.26 0 130.945 2.64538 130.945 5.62143V52.5769C130.945 53.8996 129.953 54.8916 128.63 54.8916L100.193 55.2223C99.2006 55.2223 97.8779 54.561 97.8779 52.9076V16.8643C97.8779 14.5496 95.5632 12.5655 93.5792 12.5655H54.8905C52.5758 12.5655 50.5918 14.8803 50.5918 16.8643V52.9076C50.5918 53.8996 49.9304 54.8916 48.6077 54.8916H26.7834C24.4687 54.8916 22.4846 57.2063 22.4846 59.1904V83.3295C22.4846 85.6442 24.7993 87.6282 26.7834 87.6282H50.9224C53.2371 87.6282 55.2212 85.3135 55.2212 83.3295V61.5051C55.2212 60.5131 55.8825 59.521 57.2052 59.521H91.9258C92.9178 59.521 94.2405 60.1824 94.2405 61.8357L93.9099 92.5883C93.9099 95.895 96.5552 98.2097 99.5313 98.2097H131.276C134.583 98.2097 136.897 95.5643 136.897 92.5883V63.8198C136.897 62.4971 137.889 61.5051 139.212 61.5051H186.167C189.474 61.5051 191.789 58.8597 191.789 55.8836V5.62143C192.781 2.97605 190.136 0 186.829 0Z" fill="url(#paint0_linear_357_1647)"/>
<path d="M16.2029 108.13V97.8794C16.2029 96.226 14.8803 94.9033 13.2269 94.9033H2.97605C1.32269 94.9033 0 96.226 0 97.8794V108.13C0 109.784 1.32269 111.106 2.97605 111.106H13.2269C14.8803 110.776 16.2029 109.784 16.2029 108.13Z" fill="url(#paint1_linear_357_1647)"/>
<path d="M21.84 135.465C21.84 135.599 21.7867 135.719 21.68 135.825C21.6 135.905 21.4933 135.945 21.36 135.945H8.28C8.14667 135.945 8.08 136.012 8.08 136.145V142.345C8.08 142.479 8.14667 142.545 8.28 142.545H16.88C17.0133 142.545 17.12 142.599 17.2 142.705C17.3067 142.785 17.36 142.892 17.36 143.025V146.905C17.36 147.039 17.3067 147.159 17.2 147.265C17.12 147.345 17.0133 147.385 16.88 147.385H8.28C8.14667 147.385 8.08 147.452 8.08 147.585V158.625C8.08 158.759 8.02667 158.879 7.92 158.985C7.84 159.065 7.73333 159.105 7.6 159.105H2.92C2.78667 159.105 2.66667 159.065 2.56 158.985C2.48 158.879 2.44 158.759 2.44 158.625V131.585C2.44 131.452 2.48 131.345 2.56 131.265C2.66667 131.159 2.78667 131.105 2.92 131.105H21.36C21.4933 131.105 21.6 131.159 21.68 131.265C21.7867 131.345 21.84 131.452 21.84 131.585V135.465ZM39.4978 159.105C39.2311 159.105 39.0578 158.972 38.9778 158.705L37.7778 154.785C37.7245 154.679 37.6578 154.625 37.5778 154.625H27.7378C27.6578 154.625 27.5911 154.679 27.5378 154.785L26.3778 158.705C26.2978 158.972 26.1245 159.105 25.8578 159.105H20.7778C20.6178 159.105 20.4978 159.065 20.4178 158.985C20.3378 158.879 20.3245 158.732 20.3778 158.545L29.0178 131.505C29.0978 131.239 29.2711 131.105 29.5378 131.105H35.8178C36.0845 131.105 36.2578 131.239 36.3378 131.505L44.9778 158.545C45.0045 158.599 45.0178 158.665 45.0178 158.745C45.0178 158.985 44.8711 159.105 44.5778 159.105H39.4978ZM28.9778 150.025C28.9511 150.185 29.0045 150.265 29.1378 150.265H36.1778C36.3378 150.265 36.3911 150.185 36.3378 150.025L32.7378 138.145C32.7111 138.039 32.6711 137.999 32.6178 138.025C32.5645 138.025 32.5245 138.065 32.4978 138.145L28.9778 150.025ZM57.5144 159.425C55.4344 159.425 53.6077 159.025 52.0344 158.225C50.461 157.399 49.2477 156.252 48.3944 154.785C47.541 153.319 47.1144 151.625 47.1144 149.705V140.465C47.1144 138.545 47.541 136.852 48.3944 135.385C49.2477 133.919 50.461 132.785 52.0344 131.985C53.6077 131.185 55.4344 130.785 57.5144 130.785C59.5677 130.785 61.3677 131.172 62.9144 131.945C64.4877 132.692 65.701 133.772 66.5544 135.185C67.4344 136.572 67.8744 138.185 67.8744 140.025C67.8744 140.265 67.7144 140.412 67.3944 140.465L62.7144 140.745H62.6344C62.3677 140.745 62.2344 140.599 62.2344 140.305C62.2344 138.892 61.7944 137.759 60.9144 136.905C60.061 136.052 58.9277 135.625 57.5144 135.625C56.0744 135.625 54.9144 136.052 54.0344 136.905C53.181 137.759 52.7544 138.892 52.7544 140.305V149.945C52.7544 151.332 53.181 152.452 54.0344 153.305C54.9144 154.159 56.0744 154.585 57.5144 154.585C58.9277 154.585 60.061 154.159 60.9144 153.305C61.7944 152.452 62.2344 151.332 62.2344 149.945C62.2344 149.652 62.3944 149.505 62.7144 149.505L67.3944 149.705C67.5277 149.705 67.6344 149.745 67.7144 149.825C67.821 149.905 67.8744 149.999 67.8744 150.105C67.8744 151.945 67.4344 153.572 66.5544 154.985C65.701 156.399 64.4877 157.492 62.9144 158.265C61.3677 159.039 59.5677 159.425 57.5144 159.425ZM91.0178 131.105C91.1511 131.105 91.2578 131.159 91.3378 131.265C91.4445 131.345 91.4978 131.452 91.4978 131.585V135.505C91.4978 135.639 91.4445 135.759 91.3378 135.865C91.2578 135.945 91.1511 135.985 91.0178 135.985H83.8578C83.7245 135.985 83.6578 136.052 83.6578 136.185V158.625C83.6578 158.759 83.6045 158.879 83.4978 158.985C83.4178 159.065 83.3111 159.105 83.1778 159.105H78.4978C78.3645 159.105 78.2445 159.065 78.1378 158.985C78.0578 158.879 78.0178 158.759 78.0178 158.625V136.185C78.0178 136.052 77.9511 135.985 77.8178 135.985H70.8578C70.7245 135.985 70.6045 135.945 70.4978 135.865C70.4178 135.759 70.3778 135.639 70.3778 135.505V131.585C70.3778 131.452 70.4178 131.345 70.4978 131.265C70.6045 131.159 70.7245 131.105 70.8578 131.105H91.0178ZM104.462 159.425C102.329 159.425 100.462 159.092 98.8619 158.425C97.2619 157.732 96.0219 156.759 95.1419 155.505C94.2885 154.225 93.8619 152.745 93.8619 151.065V150.185C93.8619 150.052 93.9019 149.945 93.9819 149.865C94.0885 149.759 94.2085 149.705 94.3419 149.705H98.9019C99.0352 149.705 99.1419 149.759 99.2219 149.865C99.3285 149.945 99.3819 150.052 99.3819 150.185V150.785C99.3819 151.852 99.8752 152.759 100.862 153.505C101.849 154.225 103.182 154.585 104.862 154.585C106.275 154.585 107.329 154.292 108.022 153.705C108.715 153.092 109.062 152.345 109.062 151.465C109.062 150.825 108.849 150.292 108.422 149.865C107.995 149.412 107.409 149.025 106.662 148.705C105.942 148.359 104.782 147.892 103.182 147.305C101.395 146.692 99.8752 146.065 98.6219 145.425C97.3952 144.785 96.3552 143.919 95.5019 142.825C94.6752 141.705 94.2619 140.332 94.2619 138.705C94.2619 137.105 94.6752 135.705 95.5019 134.505C96.3285 133.305 97.4752 132.385 98.9419 131.745C100.409 131.105 102.102 130.785 104.022 130.785C106.049 130.785 107.849 131.145 109.422 131.865C111.022 132.585 112.262 133.599 113.142 134.905C114.049 136.185 114.502 137.679 114.502 139.385V139.985C114.502 140.119 114.449 140.239 114.342 140.345C114.262 140.425 114.155 140.465 114.022 140.465H109.422C109.289 140.465 109.169 140.425 109.062 140.345C108.982 140.239 108.942 140.119 108.942 139.985V139.665C108.942 138.545 108.475 137.599 107.542 136.825C106.635 136.025 105.382 135.625 103.782 135.625C102.529 135.625 101.542 135.892 100.822 136.425C100.129 136.959 99.7819 137.692 99.7819 138.625C99.7819 139.292 99.9819 139.852 100.382 140.305C100.809 140.759 101.422 141.172 102.222 141.545C103.049 141.892 104.315 142.372 106.022 142.985C107.915 143.679 109.395 144.292 110.462 144.825C111.555 145.359 112.529 146.159 113.382 147.225C114.262 148.265 114.702 149.625 114.702 151.305C114.702 153.812 113.782 155.799 111.942 157.265C110.102 158.705 107.609 159.425 104.462 159.425ZM130.211 131.065C131.971 131.065 133.518 131.425 134.851 132.145C136.184 132.865 137.211 133.892 137.931 135.225C138.678 136.532 139.051 138.039 139.051 139.745C139.051 141.425 138.664 142.905 137.891 144.185C137.144 145.465 136.078 146.465 134.691 147.185C133.331 147.879 131.758 148.225 129.971 148.225H124.291C124.158 148.225 124.091 148.292 124.091 148.425V158.625C124.091 158.759 124.038 158.879 123.931 158.985C123.851 159.065 123.744 159.105 123.611 159.105H118.931C118.798 159.105 118.678 159.065 118.571 158.985C118.491 158.879 118.451 158.759 118.451 158.625V131.545C118.451 131.412 118.491 131.305 118.571 131.225C118.678 131.119 118.798 131.065 118.931 131.065H130.211ZM129.371 143.705C130.598 143.705 131.584 143.359 132.331 142.665C133.078 141.945 133.451 141.012 133.451 139.865C133.451 138.692 133.078 137.745 132.331 137.025C131.584 136.305 130.598 135.945 129.371 135.945H124.291C124.158 135.945 124.091 136.012 124.091 136.145V143.505C124.091 143.639 124.158 143.705 124.291 143.705H129.371ZM158.092 159.105C157.825 159.105 157.652 158.972 157.572 158.705L156.372 154.785C156.318 154.679 156.252 154.625 156.172 154.625H146.332C146.252 154.625 146.185 154.679 146.132 154.785L144.972 158.705C144.892 158.972 144.718 159.105 144.452 159.105H139.372C139.212 159.105 139.092 159.065 139.012 158.985C138.932 158.879 138.918 158.732 138.972 158.545L147.612 131.505C147.692 131.239 147.865 131.105 148.132 131.105H154.412C154.678 131.105 154.852 131.239 154.932 131.505L163.572 158.545C163.598 158.599 163.612 158.665 163.612 158.745C163.612 158.985 163.465 159.105 163.172 159.105H158.092ZM147.572 150.025C147.545 150.185 147.598 150.265 147.732 150.265H154.772C154.932 150.265 154.985 150.185 154.932 150.025L151.332 138.145C151.305 138.039 151.265 137.999 151.212 138.025C151.158 138.025 151.118 138.065 151.092 138.145L147.572 150.025ZM183.208 131.585C183.208 131.452 183.248 131.345 183.328 131.265C183.434 131.159 183.554 131.105 183.688 131.105H188.368C188.501 131.105 188.608 131.159 188.688 131.265C188.794 131.345 188.848 131.452 188.848 131.585V158.625C188.848 158.759 188.794 158.879 188.688 158.985C188.608 159.065 188.501 159.105 188.368 159.105H183.848C183.581 159.105 183.394 158.999 183.288 158.785L172.928 141.665C172.874 141.585 172.821 141.559 172.768 141.585C172.714 141.585 172.688 141.639 172.688 141.745L172.768 158.625C172.768 158.759 172.714 158.879 172.608 158.985C172.528 159.065 172.421 159.105 172.288 159.105H167.608C167.474 159.105 167.354 159.065 167.248 158.985C167.168 158.879 167.128 158.759 167.128 158.625V131.585C167.128 131.452 167.168 131.345 167.248 131.265C167.354 131.159 167.474 131.105 167.608 131.105H172.128C172.394 131.105 172.581 131.212 172.688 131.425L183.008 148.465C183.061 148.545 183.114 148.585 183.168 148.585C183.221 148.559 183.248 148.492 183.248 148.385L183.208 131.585Z" fill="url(#paint2_linear_357_1647)"/>
<path d="M14.308 174.624C14.4013 174.475 14.532 174.4 14.7 174.4H17.976C18.0693 174.4 18.144 174.437 18.2 174.512C18.2747 174.568 18.312 174.643 18.312 174.736V193.664C18.312 193.757 18.2747 193.841 18.2 193.916C18.144 193.972 18.0693 194 17.976 194H14.7C14.6067 194 14.5227 193.972 14.448 193.916C14.392 193.841 14.364 193.757 14.364 193.664V181.316C14.364 181.241 14.3453 181.204 14.308 181.204C14.2707 181.204 14.2333 181.232 14.196 181.288L11.228 185.936C11.1347 186.085 11.004 186.16 10.836 186.16H9.184C9.016 186.16 8.88533 186.085 8.792 185.936L5.824 181.288C5.78667 181.232 5.74933 181.213 5.712 181.232C5.67467 181.232 5.656 181.269 5.656 181.344V193.664C5.656 193.757 5.61867 193.841 5.544 193.916C5.488 193.972 5.41333 194 5.32 194H2.044C1.95067 194 1.86667 193.972 1.792 193.916C1.736 193.841 1.708 193.757 1.708 193.664V174.736C1.708 174.643 1.736 174.568 1.792 174.512C1.86667 174.437 1.95067 174.4 2.044 174.4H5.32C5.488 174.4 5.61867 174.475 5.712 174.624L9.912 181.148C9.968 181.26 10.024 181.26 10.08 181.148L14.308 174.624ZM34.1836 194C33.997 194 33.8756 193.907 33.8196 193.72L32.9796 190.976C32.9423 190.901 32.8956 190.864 32.8396 190.864H25.9516C25.8956 190.864 25.849 190.901 25.8116 190.976L24.9996 193.72C24.9436 193.907 24.8223 194 24.6356 194H21.0796C20.9676 194 20.8836 193.972 20.8276 193.916C20.7716 193.841 20.7623 193.739 20.7996 193.608L26.8476 174.68C26.9036 174.493 27.025 174.4 27.2116 174.4H31.6076C31.7943 174.4 31.9156 174.493 31.9716 174.68L38.0196 193.608C38.0383 193.645 38.0476 193.692 38.0476 193.748C38.0476 193.916 37.945 194 37.7396 194H34.1836ZM26.8196 187.644C26.801 187.756 26.8383 187.812 26.9316 187.812H31.8596C31.9716 187.812 32.009 187.756 31.9716 187.644L29.4516 179.328C29.433 179.253 29.405 179.225 29.3676 179.244C29.3303 179.244 29.3023 179.272 29.2836 179.328L26.8196 187.644ZM51.2608 194C51.0741 194 50.9434 193.916 50.8688 193.748L47.3688 185.992C47.3314 185.917 47.2754 185.88 47.2008 185.88H44.5968C44.5034 185.88 44.4568 185.927 44.4568 186.02V193.664C44.4568 193.757 44.4194 193.841 44.3448 193.916C44.2888 193.972 44.2141 194 44.1208 194H40.8448C40.7514 194 40.6674 193.972 40.5928 193.916C40.5368 193.841 40.5088 193.757 40.5088 193.664V174.736C40.5088 174.643 40.5368 174.568 40.5928 174.512C40.6674 174.437 40.7514 174.4 40.8448 174.4H48.8528C50.0474 174.4 51.0928 174.643 51.9888 175.128C52.9034 175.613 53.6034 176.304 54.0888 177.2C54.5928 178.096 54.8448 179.132 54.8448 180.308C54.8448 181.577 54.5274 182.669 53.8928 183.584C53.2581 184.48 52.3714 185.115 51.2328 185.488C51.1394 185.525 51.1114 185.591 51.1488 185.684L54.9568 193.608C54.9941 193.683 55.0128 193.739 55.0128 193.776C55.0128 193.925 54.9101 194 54.7048 194H51.2608ZM44.5968 177.788C44.5034 177.788 44.4568 177.835 44.4568 177.928V182.716C44.4568 182.809 44.5034 182.856 44.5968 182.856H48.2648C49.0488 182.856 49.6834 182.623 50.1688 182.156C50.6728 181.689 50.9248 181.083 50.9248 180.336C50.9248 179.589 50.6728 178.983 50.1688 178.516C49.6834 178.031 49.0488 177.788 48.2648 177.788H44.5968ZM58.044 194C57.9507 194 57.8667 193.972 57.792 193.916C57.736 193.841 57.708 193.757 57.708 193.664V174.736C57.708 174.643 57.736 174.568 57.792 174.512C57.8667 174.437 57.9507 174.4 58.044 174.4H61.32C61.4133 174.4 61.488 174.437 61.544 174.512C61.6187 174.568 61.656 174.643 61.656 174.736V182.576C61.656 182.632 61.6747 182.669 61.712 182.688C61.7493 182.688 61.7867 182.669 61.824 182.632L68.292 174.596C68.404 174.465 68.544 174.4 68.712 174.4H72.408C72.5573 174.4 72.6507 174.447 72.688 174.54C72.7253 174.615 72.7067 174.708 72.632 174.82L66.388 182.8C66.332 182.875 66.3227 182.94 66.36 182.996L72.968 193.608C73.0053 193.72 73.024 193.785 73.024 193.804C73.024 193.935 72.9307 194 72.744 194H69.048C68.8613 194 68.7307 193.925 68.656 193.776L63.672 185.712C63.6533 185.675 63.6253 185.656 63.588 185.656C63.5507 185.656 63.5133 185.675 63.476 185.712L61.712 187.924C61.6747 187.999 61.656 188.055 61.656 188.092V193.664C61.656 193.757 61.6187 193.841 61.544 193.916C61.488 193.972 61.4133 194 61.32 194H58.044ZM88.8433 177.452C88.8433 177.545 88.806 177.629 88.7313 177.704C88.6753 177.76 88.6007 177.788 88.5073 177.788H79.3233C79.23 177.788 79.1833 177.835 79.1833 177.928V182.268C79.1833 182.361 79.23 182.408 79.3233 182.408H85.3433C85.4367 182.408 85.5113 182.445 85.5673 182.52C85.642 182.576 85.6793 182.651 85.6793 182.744V185.46C85.6793 185.553 85.642 185.637 85.5673 185.712C85.5113 185.768 85.4367 185.796 85.3433 185.796H79.3233C79.23 185.796 79.1833 185.843 79.1833 185.936V190.472C79.1833 190.565 79.23 190.612 79.3233 190.612H88.5073C88.6007 190.612 88.6753 190.649 88.7313 190.724C88.806 190.78 88.8433 190.855 88.8433 190.948V193.664C88.8433 193.757 88.806 193.841 88.7313 193.916C88.6753 193.972 88.6007 194 88.5073 194H75.5713C75.478 194 75.394 193.972 75.3193 193.916C75.2633 193.841 75.2353 193.757 75.2353 193.664V174.736C75.2353 174.643 75.2633 174.568 75.3193 174.512C75.394 174.437 75.478 174.4 75.5713 174.4H88.5073C88.6007 174.4 88.6753 174.437 88.7313 174.512C88.806 174.568 88.8433 174.643 88.8433 174.736V177.452ZM105.111 174.4C105.204 174.4 105.279 174.437 105.335 174.512C105.41 174.568 105.447 174.643 105.447 174.736V177.48C105.447 177.573 105.41 177.657 105.335 177.732C105.279 177.788 105.204 177.816 105.111 177.816H100.099C100.006 177.816 99.9589 177.863 99.9589 177.956V193.664C99.9589 193.757 99.9216 193.841 99.8469 193.916C99.7909 193.972 99.7162 194 99.6229 194H96.3469C96.2536 194 96.1696 193.972 96.0949 193.916C96.0389 193.841 96.0109 193.757 96.0109 193.664V177.956C96.0109 177.863 95.9642 177.816 95.8709 177.816H90.9989C90.9056 177.816 90.8216 177.788 90.7469 177.732C90.6909 177.657 90.6629 177.573 90.6629 177.48V174.736C90.6629 174.643 90.6909 174.568 90.7469 174.512C90.8216 174.437 90.9056 174.4 90.9989 174.4H105.111ZM116.058 174.372C117.29 174.372 118.372 174.624 119.306 175.128C120.239 175.632 120.958 176.351 121.462 177.284C121.984 178.199 122.246 179.253 122.246 180.448C122.246 181.624 121.975 182.66 121.434 183.556C120.911 184.452 120.164 185.152 119.194 185.656C118.242 186.141 117.14 186.384 115.89 186.384H111.914C111.82 186.384 111.774 186.431 111.774 186.524V193.664C111.774 193.757 111.736 193.841 111.662 193.916C111.606 193.972 111.531 194 111.438 194H108.162C108.068 194 107.984 193.972 107.91 193.916C107.854 193.841 107.826 193.757 107.826 193.664V174.708C107.826 174.615 107.854 174.54 107.91 174.484C107.984 174.409 108.068 174.372 108.162 174.372H116.058ZM115.47 183.22C116.328 183.22 117.019 182.977 117.542 182.492C118.064 181.988 118.326 181.335 118.326 180.532C118.326 179.711 118.064 179.048 117.542 178.544C117.019 178.04 116.328 177.788 115.47 177.788H111.914C111.82 177.788 111.774 177.835 111.774 177.928V183.08C111.774 183.173 111.82 183.22 111.914 183.22H115.47ZM125.009 194C124.916 194 124.832 193.972 124.757 193.916C124.701 193.841 124.673 193.757 124.673 193.664V174.736C124.673 174.643 124.701 174.568 124.757 174.512C124.832 174.437 124.916 174.4 125.009 174.4H128.285C128.378 174.4 128.453 174.437 128.509 174.512C128.584 174.568 128.621 174.643 128.621 174.736V190.472C128.621 190.565 128.668 190.612 128.761 190.612H137.917C138.01 190.612 138.085 190.649 138.141 190.724C138.216 190.78 138.253 190.855 138.253 190.948V193.664C138.253 193.757 138.216 193.841 138.141 193.916C138.085 193.972 138.01 194 137.917 194H125.009ZM153.621 194C153.434 194 153.313 193.907 153.257 193.72L152.417 190.976C152.38 190.901 152.333 190.864 152.277 190.864H145.389C145.333 190.864 145.286 190.901 145.249 190.976L144.437 193.72C144.381 193.907 144.26 194 144.073 194H140.517C140.405 194 140.321 193.972 140.265 193.916C140.209 193.841 140.2 193.739 140.237 193.608L146.285 174.68C146.341 174.493 146.462 174.4 146.649 174.4H151.045C151.232 174.4 151.353 174.493 151.409 174.68L157.457 193.608C157.476 193.645 157.485 193.692 157.485 193.748C157.485 193.916 157.382 194 157.177 194H153.621ZM146.257 187.644C146.238 187.756 146.276 187.812 146.369 187.812H151.297C151.409 187.812 151.446 187.756 151.409 187.644L148.889 179.328C148.87 179.253 148.842 179.225 148.805 179.244C148.768 179.244 148.74 179.272 148.721 179.328L146.257 187.644ZM166.233 194.224C164.777 194.224 163.498 193.944 162.397 193.384C161.295 192.805 160.446 192.003 159.849 190.976C159.251 189.949 158.953 188.764 158.953 187.42V180.952C158.953 179.608 159.251 178.423 159.849 177.396C160.446 176.369 161.295 175.576 162.397 175.016C163.498 174.456 164.777 174.176 166.233 174.176C167.67 174.176 168.93 174.447 170.013 174.988C171.114 175.511 171.963 176.267 172.561 177.256C173.177 178.227 173.485 179.356 173.485 180.644C173.485 180.812 173.373 180.915 173.149 180.952L169.873 181.148H169.817C169.63 181.148 169.537 181.045 169.537 180.84C169.537 179.851 169.229 179.057 168.613 178.46C168.015 177.863 167.222 177.564 166.233 177.564C165.225 177.564 164.413 177.863 163.797 178.46C163.199 179.057 162.901 179.851 162.901 180.84V187.588C162.901 188.559 163.199 189.343 163.797 189.94C164.413 190.537 165.225 190.836 166.233 190.836C167.222 190.836 168.015 190.537 168.613 189.94C169.229 189.343 169.537 188.559 169.537 187.588C169.537 187.383 169.649 187.28 169.873 187.28L173.149 187.42C173.242 187.42 173.317 187.448 173.373 187.504C173.447 187.56 173.485 187.625 173.485 187.7C173.485 188.988 173.177 190.127 172.561 191.116C171.963 192.105 171.114 192.871 170.013 193.412C168.93 193.953 167.67 194.224 166.233 194.224ZM189.988 177.452C189.988 177.545 189.951 177.629 189.876 177.704C189.82 177.76 189.745 177.788 189.652 177.788H180.468C180.375 177.788 180.328 177.835 180.328 177.928V182.268C180.328 182.361 180.375 182.408 180.468 182.408H186.488C186.581 182.408 186.656 182.445 186.712 182.52C186.787 182.576 186.824 182.651 186.824 182.744V185.46C186.824 185.553 186.787 185.637 186.712 185.712C186.656 185.768 186.581 185.796 186.488 185.796H180.468C180.375 185.796 180.328 185.843 180.328 185.936V190.472C180.328 190.565 180.375 190.612 180.468 190.612H189.652C189.745 190.612 189.82 190.649 189.876 190.724C189.951 190.78 189.988 190.855 189.988 190.948V193.664C189.988 193.757 189.951 193.841 189.876 193.916C189.82 193.972 189.745 194 189.652 194H176.716C176.623 194 176.539 193.972 176.464 193.916C176.408 193.841 176.38 193.757 176.38 193.664V174.736C176.38 174.643 176.408 174.568 176.464 174.512C176.539 174.437 176.623 174.4 176.716 174.4H189.652C189.745 174.4 189.82 174.437 189.876 174.512C189.951 174.568 189.988 174.643 189.988 174.736V177.452Z" fill="url(#paint3_linear_357_1647)"/>
<rect x="256" y="194" width="80" height="80" rx="5" fill="#F46F22"/>
<rect x="560" y="232" width="80" height="80" rx="5" fill="#313265"/>
<rect x="260.5" y="198.5" width="375" height="109" rx="4.5" fill="white" stroke="#D9D9D9"/>
<path d="M293.968 230.372C295.107 230.372 296.105 230.615 296.964 231.1C297.841 231.567 298.513 232.229 298.98 233.088C299.465 233.947 299.708 234.936 299.708 236.056C299.708 237.176 299.465 238.156 298.98 238.996C298.495 239.836 297.804 240.489 296.908 240.956C296.031 241.423 295.013 241.656 293.856 241.656H288.928C288.853 241.656 288.816 241.693 288.816 241.768V249.72C288.816 249.907 288.723 250 288.536 250H286.408C286.221 250 286.128 249.907 286.128 249.72V230.652C286.128 230.465 286.221 230.372 286.408 230.372H293.968ZM293.604 239.472C294.631 239.472 295.452 239.164 296.068 238.548C296.703 237.932 297.02 237.12 297.02 236.112C297.02 235.085 296.703 234.264 296.068 233.648C295.452 233.013 294.631 232.696 293.604 232.696H288.928C288.853 232.696 288.816 232.733 288.816 232.808V239.36C288.816 239.435 288.853 239.472 288.928 239.472H293.604ZM307.753 250.224C306.371 250.224 305.167 249.879 304.141 249.188C303.114 248.479 302.395 247.499 301.985 246.248C301.649 245.24 301.481 244.101 301.481 242.832C301.481 241.507 301.639 240.387 301.957 239.472C302.367 238.24 303.086 237.279 304.113 236.588C305.139 235.879 306.362 235.524 307.781 235.524C309.125 235.524 310.291 235.879 311.281 236.588C312.289 237.279 313.007 238.231 313.437 239.444C313.773 240.396 313.941 241.516 313.941 242.804C313.941 244.111 313.773 245.259 313.437 246.248C313.026 247.499 312.317 248.479 311.309 249.188C310.301 249.879 309.115 250.224 307.753 250.224ZM307.753 247.9C308.499 247.9 309.153 247.695 309.713 247.284C310.273 246.855 310.674 246.257 310.917 245.492C311.122 244.783 311.225 243.905 311.225 242.86C311.225 241.815 311.131 240.947 310.945 240.256C310.702 239.491 310.301 238.903 309.741 238.492C309.181 238.063 308.499 237.848 307.697 237.848C306.931 237.848 306.269 238.063 305.709 238.492C305.149 238.903 304.747 239.491 304.505 240.256C304.299 240.909 304.197 241.777 304.197 242.86C304.197 243.943 304.299 244.82 304.505 245.492C304.729 246.257 305.121 246.855 305.681 247.284C306.259 247.695 306.95 247.9 307.753 247.9ZM319.968 250C319.818 250 319.716 249.925 319.66 249.776L315.628 236.056L315.6 235.972C315.6 235.823 315.693 235.748 315.88 235.748H318.064C318.232 235.748 318.334 235.832 318.372 236L321.032 246.164C321.05 246.201 321.069 246.22 321.088 246.22C321.125 246.22 321.153 246.201 321.172 246.164L323.888 236C323.925 235.832 324.028 235.748 324.196 235.748H326.128C326.296 235.748 326.398 235.832 326.436 236L329.208 246.136C329.226 246.173 329.245 246.192 329.264 246.192C329.301 246.192 329.329 246.173 329.348 246.136L332.12 236C332.157 235.832 332.26 235.748 332.428 235.748L334.584 235.776C334.677 235.776 334.742 235.804 334.78 235.86C334.836 235.916 334.854 235.991 334.836 236.084L330.776 249.776C330.72 249.925 330.617 250 330.468 250H328.284C328.134 250 328.032 249.925 327.976 249.776L325.232 240.312C325.213 240.275 325.185 240.256 325.148 240.256C325.129 240.256 325.11 240.275 325.092 240.312L322.488 249.748C322.45 249.916 322.348 250 322.18 250H319.968ZM348.519 241.096C348.594 241.861 348.622 242.72 348.603 243.672C348.603 243.859 348.51 243.952 348.323 243.952H339.391C339.317 243.952 339.279 243.989 339.279 244.064C339.279 244.699 339.335 245.184 339.447 245.52C339.653 246.267 340.063 246.855 340.679 247.284C341.314 247.695 342.107 247.9 343.059 247.9C344.441 247.9 345.505 247.331 346.251 246.192C346.345 246.005 346.466 245.977 346.615 246.108L348.211 247.172C348.342 247.284 348.37 247.405 348.295 247.536C347.773 248.376 347.026 249.039 346.055 249.524C345.103 250.009 344.021 250.252 342.807 250.252C341.445 250.252 340.297 249.953 339.363 249.356C338.43 248.759 337.73 247.909 337.263 246.808C336.815 245.707 336.591 244.372 336.591 242.804C336.591 241.441 336.694 240.405 336.899 239.696C337.235 238.408 337.907 237.391 338.915 236.644C339.923 235.897 341.146 235.524 342.583 235.524C344.469 235.524 345.878 236 346.811 236.952C347.745 237.885 348.314 239.267 348.519 241.096ZM342.583 237.848C341.781 237.848 341.118 238.053 340.595 238.464C340.073 238.856 339.718 239.388 339.531 240.06C339.401 240.471 339.317 240.993 339.279 241.628C339.279 241.703 339.317 241.74 339.391 241.74H345.803C345.878 241.74 345.915 241.703 345.915 241.628C345.878 241.012 345.822 240.555 345.747 240.256C345.561 239.528 345.187 238.949 344.627 238.52C344.086 238.072 343.405 237.848 342.583 237.848ZM358.239 235.608C358.836 235.608 359.378 235.729 359.863 235.972C359.994 236.028 360.04 236.14 360.003 236.308L359.555 238.408C359.536 238.576 359.424 238.632 359.219 238.576C358.902 238.445 358.528 238.38 358.099 238.38L357.707 238.408C356.83 238.445 356.102 238.753 355.523 239.332C354.963 239.892 354.683 240.629 354.683 241.544V249.72C354.683 249.907 354.59 250 354.403 250H352.275C352.088 250 351.995 249.907 351.995 249.72V236.028C351.995 235.841 352.088 235.748 352.275 235.748H354.403C354.59 235.748 354.683 235.841 354.683 236.028V237.512C354.683 237.568 354.692 237.605 354.711 237.624C354.748 237.624 354.776 237.605 354.795 237.568C355.635 236.261 356.783 235.608 358.239 235.608ZM364.01 233.508C363.487 233.508 363.058 233.34 362.722 233.004C362.386 232.668 362.218 232.239 362.218 231.716C362.218 231.193 362.386 230.764 362.722 230.428C363.058 230.092 363.487 229.924 364.01 229.924C364.532 229.924 364.962 230.092 365.298 230.428C365.634 230.764 365.802 231.193 365.802 231.716C365.802 232.239 365.634 232.668 365.298 233.004C364.962 233.34 364.532 233.508 364.01 233.508ZM362.89 249.972C362.703 249.972 362.61 249.879 362.61 249.692V236.028C362.61 235.841 362.703 235.748 362.89 235.748H365.018C365.204 235.748 365.298 235.841 365.298 236.028V249.692C365.298 249.879 365.204 249.972 365.018 249.972H362.89ZM375.879 235.552C377.409 235.552 378.623 236 379.519 236.896C380.415 237.773 380.863 238.968 380.863 240.48V249.72C380.863 249.907 380.769 250 380.583 250H378.455C378.268 250 378.175 249.907 378.175 249.72V241.012C378.175 240.079 377.904 239.323 377.363 238.744C376.821 238.165 376.103 237.876 375.207 237.876C374.329 237.876 373.611 238.165 373.051 238.744C372.491 239.323 372.211 240.069 372.211 240.984V249.72C372.211 249.907 372.117 250 371.931 250H369.803C369.616 250 369.523 249.907 369.523 249.72V236.028C369.523 235.841 369.616 235.748 369.803 235.748H371.931C372.117 235.748 372.211 235.841 372.211 236.028V237.036C372.211 237.073 372.22 237.101 372.239 237.12C372.276 237.139 372.304 237.129 372.323 237.092C373.125 236.065 374.311 235.552 375.879 235.552ZM393.462 236.028C393.462 235.841 393.556 235.748 393.742 235.748H395.87C396.057 235.748 396.15 235.841 396.15 236.028V249.272C396.15 251.531 395.506 253.145 394.218 254.116C392.949 255.087 391.241 255.572 389.094 255.572C388.796 255.572 388.329 255.553 387.694 255.516C387.508 255.497 387.414 255.395 387.414 255.208L387.498 253.276C387.498 253.201 387.526 253.136 387.582 253.08C387.638 253.024 387.713 253.005 387.806 253.024C388.068 253.043 388.45 253.052 388.954 253.052C390.541 253.052 391.689 252.753 392.398 252.156C393.108 251.577 393.462 250.588 393.462 249.188V248.684C393.462 248.647 393.444 248.619 393.406 248.6C393.388 248.581 393.36 248.591 393.322 248.628C392.538 249.543 391.39 250 389.878 250C388.665 250 387.564 249.683 386.574 249.048C385.604 248.413 384.932 247.48 384.558 246.248C384.316 245.427 384.194 244.288 384.194 242.832C384.194 241.283 384.334 240.088 384.614 239.248C384.969 238.128 385.594 237.232 386.49 236.56C387.405 235.869 388.478 235.524 389.71 235.524C391.241 235.524 392.445 235.991 393.322 236.924C393.36 236.961 393.388 236.98 393.406 236.98C393.444 236.961 393.462 236.933 393.462 236.896V236.028ZM393.294 245.436C393.35 245.137 393.388 244.82 393.406 244.484C393.444 244.148 393.462 243.588 393.462 242.804C393.462 242.02 393.444 241.469 393.406 241.152C393.388 240.816 393.341 240.499 393.266 240.2C393.117 239.509 392.781 238.949 392.258 238.52C391.736 238.072 391.082 237.848 390.298 237.848C389.514 237.848 388.861 238.072 388.338 238.52C387.816 238.949 387.442 239.509 387.218 240.2C387.013 240.76 386.91 241.628 386.91 242.804C386.91 244.092 387.004 244.969 387.19 245.436C387.377 246.127 387.741 246.696 388.282 247.144C388.842 247.573 389.514 247.788 390.298 247.788C391.12 247.788 391.782 247.573 392.286 247.144C392.809 246.696 393.145 246.127 393.294 245.436ZM418.835 232.444C418.835 232.631 418.742 232.724 418.555 232.724H408.643C408.568 232.724 408.531 232.761 408.531 232.836V238.856C408.531 238.931 408.568 238.968 408.643 238.968H415.447C415.634 238.968 415.727 239.061 415.727 239.248V241.012C415.727 241.199 415.634 241.292 415.447 241.292H408.643C408.568 241.292 408.531 241.329 408.531 241.404V249.72C408.531 249.907 408.438 250 408.251 250H406.123C405.936 250 405.843 249.907 405.843 249.72V230.68C405.843 230.493 405.936 230.4 406.123 230.4H418.555C418.742 230.4 418.835 230.493 418.835 230.68V232.444ZM421.619 250C421.432 250 421.339 249.907 421.339 249.72V230.68C421.339 230.493 421.432 230.4 421.619 230.4H423.747C423.934 230.4 424.027 230.493 424.027 230.68V249.72C424.027 249.907 423.934 250 423.747 250H421.619ZM436.413 236.028C436.413 235.841 436.506 235.748 436.693 235.748H438.793C438.979 235.748 439.073 235.841 439.073 236.028V249.72C439.073 249.907 438.979 250 438.793 250H436.693C436.506 250 436.413 249.907 436.413 249.72V248.684C436.413 248.647 436.394 248.628 436.357 248.628C436.338 248.609 436.31 248.619 436.273 248.656C435.526 249.683 434.378 250.196 432.829 250.196C431.914 250.196 431.065 250.019 430.281 249.664C429.515 249.309 428.899 248.787 428.433 248.096C427.966 247.405 427.733 246.565 427.733 245.576V236.028C427.733 235.841 427.826 235.748 428.013 235.748H430.113C430.299 235.748 430.393 235.841 430.393 236.028V244.736C430.393 245.707 430.645 246.472 431.149 247.032C431.671 247.592 432.399 247.872 433.333 247.872C434.266 247.872 435.013 247.592 435.573 247.032C436.133 246.453 436.413 245.688 436.413 244.736V236.028ZM444.619 233.508C444.096 233.508 443.667 233.34 443.331 233.004C442.995 232.668 442.827 232.239 442.827 231.716C442.827 231.193 442.995 230.764 443.331 230.428C443.667 230.092 444.096 229.924 444.619 229.924C445.142 229.924 445.571 230.092 445.907 230.428C446.243 230.764 446.411 231.193 446.411 231.716C446.411 232.239 446.243 232.668 445.907 233.004C445.571 233.34 445.142 233.508 444.619 233.508ZM443.499 249.972C443.312 249.972 443.219 249.879 443.219 249.692V236.028C443.219 235.841 443.312 235.748 443.499 235.748H445.627C445.814 235.748 445.907 235.841 445.907 236.028V249.692C445.907 249.879 445.814 249.972 445.627 249.972H443.499ZM458.98 230.68C458.98 230.493 459.073 230.4 459.26 230.4H461.388C461.575 230.4 461.668 230.493 461.668 230.68V249.72C461.668 249.907 461.575 250 461.388 250H459.26C459.073 250 458.98 249.907 458.98 249.72V248.796C458.98 248.759 458.961 248.731 458.924 248.712C458.905 248.693 458.877 248.703 458.84 248.74C458.429 249.207 457.944 249.571 457.384 249.832C456.824 250.093 456.217 250.224 455.564 250.224C454.22 250.224 453.1 249.897 452.204 249.244C451.327 248.572 450.683 247.629 450.272 246.416C449.917 245.427 449.74 244.232 449.74 242.832C449.74 241.525 449.889 240.396 450.188 239.444C450.58 238.212 451.224 237.251 452.12 236.56C453.016 235.869 454.164 235.524 455.564 235.524C456.199 235.524 456.796 235.655 457.356 235.916C457.935 236.159 458.429 236.513 458.84 236.98C458.877 237.017 458.905 237.027 458.924 237.008C458.961 236.989 458.98 236.961 458.98 236.924V230.68ZM458.28 246.388C458.709 245.604 458.924 244.428 458.924 242.86C458.924 241.292 458.691 240.097 458.224 239.276C457.683 238.324 456.889 237.848 455.844 237.848C454.724 237.848 453.893 238.296 453.352 239.192C452.755 240.125 452.456 241.357 452.456 242.888C452.456 244.325 452.689 245.483 453.156 246.36C453.697 247.387 454.584 247.9 455.816 247.9C456.899 247.9 457.72 247.396 458.28 246.388ZM471.83 250C471.643 250 471.55 249.907 471.55 249.72V230.68C471.55 230.493 471.643 230.4 471.83 230.4H473.958C474.145 230.4 474.238 230.493 474.238 230.68V249.72C474.238 249.907 474.145 250 473.958 250H471.83ZM484.843 235.552C486.374 235.552 487.587 236 488.483 236.896C489.379 237.773 489.827 238.968 489.827 240.48V249.72C489.827 249.907 489.734 250 489.547 250H487.419C487.233 250 487.139 249.907 487.139 249.72V241.012C487.139 240.079 486.869 239.323 486.327 238.744C485.786 238.165 485.067 237.876 484.171 237.876C483.294 237.876 482.575 238.165 482.015 238.744C481.455 239.323 481.175 240.069 481.175 240.984V249.72C481.175 249.907 481.082 250 480.895 250H478.767C478.581 250 478.487 249.907 478.487 249.72V236.028C478.487 235.841 478.581 235.748 478.767 235.748H480.895C481.082 235.748 481.175 235.841 481.175 236.028V237.036C481.175 237.073 481.185 237.101 481.203 237.12C481.241 237.139 481.269 237.129 481.287 237.092C482.09 236.065 483.275 235.552 484.843 235.552ZM500.691 237.68C500.691 237.867 500.598 237.96 500.411 237.96H497.387C497.312 237.96 497.275 237.997 497.275 238.072V245.492C497.275 246.276 497.452 246.845 497.807 247.2C498.162 247.536 498.712 247.704 499.459 247.704H500.271C500.458 247.704 500.551 247.797 500.551 247.984V249.72C500.551 249.907 500.458 250 500.271 250C499.674 250.037 499.244 250.056 498.983 250.056C497.564 250.056 496.491 249.804 495.763 249.3C495.054 248.777 494.699 247.825 494.699 246.444V238.072C494.699 237.997 494.662 237.96 494.587 237.96H492.879C492.692 237.96 492.599 237.867 492.599 237.68V236.028C492.599 235.841 492.692 235.748 492.879 235.748H494.587C494.662 235.748 494.699 235.711 494.699 235.636V232.332C494.699 232.145 494.792 232.052 494.979 232.052H496.995C497.182 232.052 497.275 232.145 497.275 232.332V235.636C497.275 235.711 497.312 235.748 497.387 235.748H500.411C500.598 235.748 500.691 235.841 500.691 236.028V237.68ZM515.207 241.096C515.282 241.861 515.31 242.72 515.291 243.672C515.291 243.859 515.198 243.952 515.011 243.952H506.079C506.004 243.952 505.967 243.989 505.967 244.064C505.967 244.699 506.023 245.184 506.135 245.52C506.34 246.267 506.751 246.855 507.367 247.284C508.002 247.695 508.795 247.9 509.747 247.9C511.128 247.9 512.192 247.331 512.939 246.192C513.032 246.005 513.154 245.977 513.303 246.108L514.899 247.172C515.03 247.284 515.058 247.405 514.983 247.536C514.46 248.376 513.714 249.039 512.743 249.524C511.791 250.009 510.708 250.252 509.495 250.252C508.132 250.252 506.984 249.953 506.051 249.356C505.118 248.759 504.418 247.909 503.951 246.808C503.503 245.707 503.279 244.372 503.279 242.804C503.279 241.441 503.382 240.405 503.587 239.696C503.923 238.408 504.595 237.391 505.603 236.644C506.611 235.897 507.834 235.524 509.271 235.524C511.156 235.524 512.566 236 513.499 236.952C514.432 237.885 515.002 239.267 515.207 241.096ZM509.271 237.848C508.468 237.848 507.806 238.053 507.283 238.464C506.76 238.856 506.406 239.388 506.219 240.06C506.088 240.471 506.004 240.993 505.967 241.628C505.967 241.703 506.004 241.74 506.079 241.74H512.491C512.566 241.74 512.603 241.703 512.603 241.628C512.566 241.012 512.51 240.555 512.435 240.256C512.248 239.528 511.875 238.949 511.315 238.52C510.774 238.072 510.092 237.848 509.271 237.848ZM518.963 250C518.776 250 518.683 249.907 518.683 249.72V230.68C518.683 230.493 518.776 230.4 518.963 230.4H521.091C521.277 230.4 521.371 230.493 521.371 230.68V249.72C521.371 249.907 521.277 250 521.091 250H518.963ZM525.553 250C525.366 250 525.273 249.907 525.273 249.72V230.68C525.273 230.493 525.366 230.4 525.553 230.4H527.681C527.867 230.4 527.961 230.493 527.961 230.68V249.72C527.961 249.907 527.867 250 527.681 250H525.553ZM533.486 233.508C532.964 233.508 532.534 233.34 532.198 233.004C531.862 232.668 531.694 232.239 531.694 231.716C531.694 231.193 531.862 230.764 532.198 230.428C532.534 230.092 532.964 229.924 533.486 229.924C534.009 229.924 534.438 230.092 534.774 230.428C535.11 230.764 535.278 231.193 535.278 231.716C535.278 232.239 535.11 232.668 534.774 233.004C534.438 233.34 534.009 233.508 533.486 233.508ZM532.366 249.972C532.18 249.972 532.086 249.879 532.086 249.692V236.028C532.086 235.841 532.18 235.748 532.366 235.748H534.494C534.681 235.748 534.774 235.841 534.774 236.028V249.692C534.774 249.879 534.681 249.972 534.494 249.972H532.366ZM547.763 236.028C547.763 235.841 547.856 235.748 548.043 235.748H550.171C550.358 235.748 550.451 235.841 550.451 236.028V249.272C550.451 251.531 549.807 253.145 548.519 254.116C547.25 255.087 545.542 255.572 543.395 255.572C543.096 255.572 542.63 255.553 541.995 255.516C541.808 255.497 541.715 255.395 541.715 255.208L541.799 253.276C541.799 253.201 541.827 253.136 541.883 253.08C541.939 253.024 542.014 253.005 542.107 253.024C542.368 253.043 542.751 253.052 543.255 253.052C544.842 253.052 545.99 252.753 546.699 252.156C547.408 251.577 547.763 250.588 547.763 249.188V248.684C547.763 248.647 547.744 248.619 547.707 248.6C547.688 248.581 547.66 248.591 547.623 248.628C546.839 249.543 545.691 250 544.179 250C542.966 250 541.864 249.683 540.875 249.048C539.904 248.413 539.232 247.48 538.859 246.248C538.616 245.427 538.495 244.288 538.495 242.832C538.495 241.283 538.635 240.088 538.915 239.248C539.27 238.128 539.895 237.232 540.791 236.56C541.706 235.869 542.779 235.524 544.011 235.524C545.542 235.524 546.746 235.991 547.623 236.924C547.66 236.961 547.688 236.98 547.707 236.98C547.744 236.961 547.763 236.933 547.763 236.896V236.028ZM547.595 245.436C547.651 245.137 547.688 244.82 547.707 244.484C547.744 244.148 547.763 243.588 547.763 242.804C547.763 242.02 547.744 241.469 547.707 241.152C547.688 240.816 547.642 240.499 547.567 240.2C547.418 239.509 547.082 238.949 546.559 238.52C546.036 238.072 545.383 237.848 544.599 237.848C543.815 237.848 543.162 238.072 542.639 238.52C542.116 238.949 541.743 239.509 541.519 240.2C541.314 240.76 541.211 241.628 541.211 242.804C541.211 244.092 541.304 244.969 541.491 245.436C541.678 246.127 542.042 246.696 542.583 247.144C543.143 247.573 543.815 247.788 544.599 247.788C545.42 247.788 546.083 247.573 546.587 247.144C547.11 246.696 547.446 246.127 547.595 245.436ZM565.738 241.096C565.813 241.861 565.841 242.72 565.822 243.672C565.822 243.859 565.729 243.952 565.542 243.952H556.61C556.536 243.952 556.498 243.989 556.498 244.064C556.498 244.699 556.554 245.184 556.666 245.52C556.872 246.267 557.282 246.855 557.898 247.284C558.533 247.695 559.326 247.9 560.278 247.9C561.66 247.9 562.724 247.331 563.47 246.192C563.564 246.005 563.685 245.977 563.834 246.108L565.43 247.172C565.561 247.284 565.589 247.405 565.514 247.536C564.992 248.376 564.245 249.039 563.274 249.524C562.322 250.009 561.24 250.252 560.026 250.252C558.664 250.252 557.516 249.953 556.582 249.356C555.649 248.759 554.949 247.909 554.482 246.808C554.034 245.707 553.81 244.372 553.81 242.804C553.81 241.441 553.913 240.405 554.118 239.696C554.454 238.408 555.126 237.391 556.134 236.644C557.142 235.897 558.365 235.524 559.802 235.524C561.688 235.524 563.097 236 564.03 236.952C564.964 237.885 565.533 239.267 565.738 241.096ZM559.802 237.848C559 237.848 558.337 238.053 557.814 238.464C557.292 238.856 556.937 239.388 556.75 240.06C556.62 240.471 556.536 240.993 556.498 241.628C556.498 241.703 556.536 241.74 556.61 241.74H563.022C563.097 241.74 563.134 241.703 563.134 241.628C563.097 241.012 563.041 240.555 562.966 240.256C562.78 239.528 562.406 238.949 561.846 238.52C561.305 238.072 560.624 237.848 559.802 237.848ZM575.57 235.552C577.101 235.552 578.314 236 579.21 236.896C580.106 237.773 580.554 238.968 580.554 240.48V249.72C580.554 249.907 580.461 250 580.274 250H578.146C577.959 250 577.866 249.907 577.866 249.72V241.012C577.866 240.079 577.595 239.323 577.054 238.744C576.513 238.165 575.794 237.876 574.898 237.876C574.021 237.876 573.302 238.165 572.742 238.744C572.182 239.323 571.902 240.069 571.902 240.984V249.72C571.902 249.907 571.809 250 571.622 250H569.494C569.307 250 569.214 249.907 569.214 249.72V236.028C569.214 235.841 569.307 235.748 569.494 235.748H571.622C571.809 235.748 571.902 235.841 571.902 236.028V237.036C571.902 237.073 571.911 237.101 571.93 237.12C571.967 237.139 571.995 237.129 572.014 237.092C572.817 236.065 574.002 235.552 575.57 235.552ZM589.938 250.224C588.519 250.224 587.306 249.869 586.298 249.16C585.29 248.432 584.599 247.452 584.226 246.22C583.946 245.361 583.806 244.232 583.806 242.832C583.806 241.544 583.946 240.415 584.226 239.444C584.599 238.249 585.29 237.297 586.298 236.588C587.324 235.879 588.538 235.524 589.938 235.524C591.338 235.524 592.56 235.879 593.606 236.588C594.651 237.297 595.332 238.193 595.65 239.276C595.762 239.575 595.836 239.883 595.874 240.2C595.874 240.349 595.79 240.443 595.622 240.48L593.522 240.788H593.466C593.335 240.788 593.242 240.704 593.186 240.536L593.102 240.088C592.952 239.453 592.588 238.921 592.01 238.492C591.431 238.063 590.731 237.848 589.91 237.848C589.107 237.848 588.426 238.063 587.866 238.492C587.306 238.921 586.942 239.491 586.774 240.2C586.606 240.872 586.522 241.759 586.522 242.86C586.522 243.943 586.606 244.82 586.774 245.492C586.96 246.239 587.324 246.827 587.866 247.256C588.426 247.685 589.107 247.9 589.91 247.9C590.731 247.9 591.431 247.685 592.01 247.256C592.607 246.827 592.98 246.267 593.13 245.576C593.148 245.557 593.148 245.539 593.13 245.52C593.13 245.483 593.139 245.455 593.158 245.436V245.324C593.214 245.175 593.316 245.119 593.466 245.156L595.566 245.492C595.715 245.529 595.79 245.604 595.79 245.716V245.828C595.79 245.996 595.743 246.201 595.65 246.444C595.332 247.583 594.651 248.497 593.606 249.188C592.56 249.879 591.338 250.224 589.938 250.224ZM610.391 241.096C610.465 241.861 610.493 242.72 610.475 243.672C610.475 243.859 610.381 243.952 610.195 243.952H601.263C601.188 243.952 601.151 243.989 601.151 244.064C601.151 244.699 601.207 245.184 601.319 245.52C601.524 246.267 601.935 246.855 602.551 247.284C603.185 247.695 603.979 247.9 604.931 247.9C606.312 247.9 607.376 247.331 608.123 246.192C608.216 246.005 608.337 245.977 608.487 246.108L610.083 247.172C610.213 247.284 610.241 247.405 610.167 247.536C609.644 248.376 608.897 249.039 607.927 249.524C606.975 250.009 605.892 250.252 604.679 250.252C603.316 250.252 602.168 249.953 601.235 249.356C600.301 248.759 599.601 247.909 599.135 246.808C598.687 245.707 598.463 244.372 598.463 242.804C598.463 241.441 598.565 240.405 598.771 239.696C599.107 238.408 599.779 237.391 600.787 236.644C601.795 235.897 603.017 235.524 604.455 235.524C606.34 235.524 607.749 236 608.683 236.952C609.616 237.885 610.185 239.267 610.391 241.096ZM604.455 237.848C603.652 237.848 602.989 238.053 602.467 238.464C601.944 238.856 601.589 239.388 601.403 240.06C601.272 240.471 601.188 240.993 601.151 241.628C601.151 241.703 601.188 241.74 601.263 241.74H607.675C607.749 241.74 607.787 241.703 607.787 241.628C607.749 241.012 607.693 240.555 607.619 240.256C607.432 239.528 607.059 238.949 606.499 238.52C605.957 238.072 605.276 237.848 604.455 237.848Z" fill="url(#paint4_linear_357_1647)"/>
<path d="M292.752 270.968C292.752 271.075 292.699 271.128 292.592 271.128H286.912C286.869 271.128 286.848 271.149 286.848 271.192V274.632C286.848 274.675 286.869 274.696 286.912 274.696H290.816C290.923 274.696 290.976 274.749 290.976 274.856V275.864C290.976 275.971 290.923 276.024 290.816 276.024H286.912C286.869 276.024 286.848 276.045 286.848 276.088V279.608C286.848 279.651 286.869 279.672 286.912 279.672H292.592C292.699 279.672 292.752 279.725 292.752 279.832V280.84C292.752 280.947 292.699 281 292.592 281H285.472C285.365 281 285.312 280.947 285.312 280.84V269.96C285.312 269.853 285.365 269.8 285.472 269.8H292.592C292.699 269.8 292.752 269.853 292.752 269.96V270.968ZM298.315 272.744C299.189 272.744 299.883 273 300.395 273.512C300.907 274.013 301.163 274.696 301.163 275.56V280.84C301.163 280.947 301.109 281 301.003 281H299.787C299.68 281 299.627 280.947 299.627 280.84V275.864C299.627 275.331 299.472 274.899 299.163 274.568C298.853 274.237 298.443 274.072 297.931 274.072C297.429 274.072 297.019 274.237 296.699 274.568C296.379 274.899 296.219 275.325 296.219 275.848V280.84C296.219 280.947 296.165 281 296.059 281H294.843C294.736 281 294.683 280.947 294.683 280.84V273.016C294.683 272.909 294.736 272.856 294.843 272.856H296.059C296.165 272.856 296.219 272.909 296.219 273.016V273.592C296.219 273.613 296.224 273.629 296.235 273.64C296.256 273.651 296.272 273.645 296.283 273.624C296.741 273.037 297.419 272.744 298.315 272.744ZM306.33 272.728C306.981 272.728 307.546 272.845 308.026 273.08C308.517 273.304 308.89 273.624 309.146 274.04C309.413 274.445 309.546 274.909 309.546 275.432V280.84C309.546 280.947 309.493 281 309.386 281H308.17C308.064 281 308.01 280.947 308.01 280.84V280.264C308.01 280.211 307.984 280.2 307.93 280.232C307.653 280.52 307.312 280.744 306.906 280.904C306.512 281.053 306.069 281.128 305.578 281.128C304.789 281.128 304.133 280.931 303.61 280.536C303.098 280.131 302.842 279.523 302.842 278.712C302.842 277.88 303.13 277.229 303.706 276.76C304.293 276.28 305.109 276.04 306.154 276.04H307.946C307.989 276.04 308.01 276.019 308.01 275.976V275.544C308.01 275.075 307.872 274.712 307.594 274.456C307.328 274.189 306.917 274.056 306.362 274.056C305.914 274.056 305.546 274.147 305.258 274.328C304.981 274.499 304.81 274.733 304.746 275.032C304.714 275.139 304.65 275.187 304.554 275.176L303.258 275C303.152 274.979 303.104 274.936 303.114 274.872C303.2 274.243 303.536 273.731 304.122 273.336C304.709 272.931 305.445 272.728 306.33 272.728ZM305.914 279.832C306.48 279.832 306.97 279.683 307.386 279.384C307.802 279.085 308.01 278.707 308.01 278.248V277.304C308.01 277.261 307.989 277.24 307.946 277.24H306.442C305.813 277.24 305.312 277.363 304.938 277.608C304.565 277.853 304.378 278.195 304.378 278.632C304.378 279.027 304.517 279.325 304.794 279.528C305.082 279.731 305.456 279.832 305.914 279.832ZM318.196 274.968C318.367 275.512 318.452 276.157 318.452 276.904C318.452 277.704 318.351 278.387 318.148 278.952C317.913 279.645 317.54 280.184 317.028 280.568C316.527 280.941 315.892 281.128 315.124 281.128C314.751 281.128 314.404 281.053 314.084 280.904C313.764 280.755 313.487 280.547 313.252 280.28C313.231 280.259 313.209 280.253 313.188 280.264C313.177 280.275 313.172 280.291 313.172 280.312V280.84C313.172 280.947 313.119 281 313.012 281H311.796C311.689 281 311.636 280.947 311.636 280.84V269.96C311.636 269.853 311.689 269.8 311.796 269.8H313.012C313.119 269.8 313.172 269.853 313.172 269.96V273.528C313.172 273.549 313.177 273.565 313.188 273.576C313.209 273.587 313.231 273.581 313.252 273.56C313.487 273.293 313.764 273.091 314.084 272.952C314.415 272.803 314.761 272.728 315.124 272.728C315.924 272.728 316.58 272.925 317.092 273.32C317.604 273.715 317.972 274.264 318.196 274.968ZM316.5 278.92C316.767 278.419 316.9 277.757 316.9 276.936C316.9 276.061 316.729 275.357 316.388 274.824C316.079 274.312 315.604 274.056 314.964 274.056C314.367 274.056 313.913 274.328 313.604 274.872C313.327 275.363 313.188 276.045 313.188 276.92C313.188 277.795 313.316 278.467 313.572 278.936C313.892 279.512 314.361 279.8 314.98 279.8C315.684 279.8 316.191 279.507 316.5 278.92ZM320.624 281C320.517 281 320.464 280.947 320.464 280.84V269.96C320.464 269.853 320.517 269.8 320.624 269.8H321.84C321.946 269.8 322 269.853 322 269.96V280.84C322 280.947 321.946 281 321.84 281H320.624ZM325.157 271.576C324.859 271.576 324.613 271.48 324.421 271.288C324.229 271.096 324.133 270.851 324.133 270.552C324.133 270.253 324.229 270.008 324.421 269.816C324.613 269.624 324.859 269.528 325.157 269.528C325.456 269.528 325.701 269.624 325.893 269.816C326.085 270.008 326.181 270.253 326.181 270.552C326.181 270.851 326.085 271.096 325.893 271.288C325.701 271.48 325.456 271.576 325.157 271.576ZM324.517 280.984C324.411 280.984 324.357 280.931 324.357 280.824V273.016C324.357 272.909 324.411 272.856 324.517 272.856H325.733C325.84 272.856 325.893 272.909 325.893 273.016V280.824C325.893 280.931 325.84 280.984 325.733 280.984H324.517ZM331.94 272.744C332.814 272.744 333.508 273 334.02 273.512C334.532 274.013 334.788 274.696 334.788 275.56V280.84C334.788 280.947 334.734 281 334.628 281H333.412C333.305 281 333.252 280.947 333.252 280.84V275.864C333.252 275.331 333.097 274.899 332.788 274.568C332.478 274.237 332.068 274.072 331.556 274.072C331.054 274.072 330.644 274.237 330.324 274.568C330.004 274.899 329.844 275.325 329.844 275.848V280.84C329.844 280.947 329.79 281 329.684 281H328.468C328.361 281 328.308 280.947 328.308 280.84V273.016C328.308 272.909 328.361 272.856 328.468 272.856H329.684C329.79 272.856 329.844 272.909 329.844 273.016V273.592C329.844 273.613 329.849 273.629 329.86 273.64C329.881 273.651 329.897 273.645 329.908 273.624C330.366 273.037 331.044 272.744 331.94 272.744ZM341.987 273.016C341.987 272.909 342.041 272.856 342.147 272.856H343.363C343.47 272.856 343.523 272.909 343.523 273.016V280.584C343.523 281.875 343.155 282.797 342.419 283.352C341.694 283.907 340.718 284.184 339.491 284.184C339.321 284.184 339.054 284.173 338.691 284.152C338.585 284.141 338.531 284.083 338.531 283.976L338.579 282.872C338.579 282.829 338.595 282.792 338.627 282.76C338.659 282.728 338.702 282.717 338.755 282.728C338.905 282.739 339.123 282.744 339.411 282.744C340.318 282.744 340.974 282.573 341.379 282.232C341.785 281.901 341.987 281.336 341.987 280.536V280.248C341.987 280.227 341.977 280.211 341.955 280.2C341.945 280.189 341.929 280.195 341.907 280.216C341.459 280.739 340.803 281 339.939 281C339.246 281 338.617 280.819 338.051 280.456C337.497 280.093 337.113 279.56 336.899 278.856C336.761 278.387 336.691 277.736 336.691 276.904C336.691 276.019 336.771 275.336 336.931 274.856C337.134 274.216 337.491 273.704 338.003 273.32C338.526 272.925 339.139 272.728 339.843 272.728C340.718 272.728 341.406 272.995 341.907 273.528C341.929 273.549 341.945 273.56 341.955 273.56C341.977 273.549 341.987 273.533 341.987 273.512V273.016ZM341.891 278.392C341.923 278.221 341.945 278.04 341.955 277.848C341.977 277.656 341.987 277.336 341.987 276.888C341.987 276.44 341.977 276.125 341.955 275.944C341.945 275.752 341.918 275.571 341.875 275.4C341.79 275.005 341.598 274.685 341.299 274.44C341.001 274.184 340.627 274.056 340.179 274.056C339.731 274.056 339.358 274.184 339.059 274.44C338.761 274.685 338.547 275.005 338.419 275.4C338.302 275.72 338.243 276.216 338.243 276.888C338.243 277.624 338.297 278.125 338.403 278.392C338.51 278.787 338.718 279.112 339.027 279.368C339.347 279.613 339.731 279.736 340.179 279.736C340.649 279.736 341.027 279.613 341.315 279.368C341.614 279.112 341.806 278.787 341.891 278.392ZM356.502 270.968C356.502 271.075 356.449 271.128 356.342 271.128H350.662C350.619 271.128 350.598 271.149 350.598 271.192V274.632C350.598 274.675 350.619 274.696 350.662 274.696H354.566C354.673 274.696 354.726 274.749 354.726 274.856V275.864C354.726 275.971 354.673 276.024 354.566 276.024H350.662C350.619 276.024 350.598 276.045 350.598 276.088V279.608C350.598 279.651 350.619 279.672 350.662 279.672H356.342C356.449 279.672 356.502 279.725 356.502 279.832V280.84C356.502 280.947 356.449 281 356.342 281H349.222C349.115 281 349.062 280.947 349.062 280.84V269.96C349.062 269.853 349.115 269.8 349.222 269.8H356.342C356.449 269.8 356.502 269.853 356.502 269.96V270.968ZM362.065 272.744C362.939 272.744 363.633 273 364.145 273.512C364.657 274.013 364.913 274.696 364.913 275.56V280.84C364.913 280.947 364.859 281 364.753 281H363.537C363.43 281 363.377 280.947 363.377 280.84V275.864C363.377 275.331 363.222 274.899 362.913 274.568C362.603 274.237 362.193 274.072 361.681 274.072C361.179 274.072 360.769 274.237 360.449 274.568C360.129 274.899 359.969 275.325 359.969 275.848V280.84C359.969 280.947 359.915 281 359.809 281H358.593C358.486 281 358.433 280.947 358.433 280.84V273.016C358.433 272.909 358.486 272.856 358.593 272.856H359.809C359.915 272.856 359.969 272.909 359.969 273.016V273.592C359.969 273.613 359.974 273.629 359.985 273.64C360.006 273.651 360.022 273.645 360.033 273.624C360.491 273.037 361.169 272.744 362.065 272.744ZM371.12 273.96C371.12 274.067 371.067 274.12 370.96 274.12H369.232C369.19 274.12 369.168 274.141 369.168 274.184V278.424C369.168 278.872 369.27 279.197 369.472 279.4C369.675 279.592 369.99 279.688 370.416 279.688H370.88C370.987 279.688 371.04 279.741 371.04 279.848V280.84C371.04 280.947 370.987 281 370.88 281C370.539 281.021 370.294 281.032 370.144 281.032C369.334 281.032 368.72 280.888 368.304 280.6C367.899 280.301 367.696 279.757 367.696 278.968V274.184C367.696 274.141 367.675 274.12 367.632 274.12H366.656C366.55 274.12 366.496 274.067 366.496 273.96V273.016C366.496 272.909 366.55 272.856 366.656 272.856H367.632C367.675 272.856 367.696 272.835 367.696 272.792V270.904C367.696 270.797 367.75 270.744 367.856 270.744H369.008C369.115 270.744 369.168 270.797 369.168 270.904V272.792C369.168 272.835 369.19 272.856 369.232 272.856H370.96C371.067 272.856 371.12 272.909 371.12 273.016V273.96ZM379.415 275.912C379.458 276.349 379.474 276.84 379.463 277.384C379.463 277.491 379.41 277.544 379.303 277.544H374.199C374.156 277.544 374.135 277.565 374.135 277.608C374.135 277.971 374.167 278.248 374.231 278.44C374.348 278.867 374.583 279.203 374.935 279.448C375.298 279.683 375.751 279.8 376.295 279.8C377.084 279.8 377.692 279.475 378.119 278.824C378.172 278.717 378.242 278.701 378.327 278.776L379.239 279.384C379.314 279.448 379.33 279.517 379.287 279.592C378.988 280.072 378.562 280.451 378.007 280.728C377.463 281.005 376.844 281.144 376.151 281.144C375.372 281.144 374.716 280.973 374.183 280.632C373.65 280.291 373.25 279.805 372.983 279.176C372.727 278.547 372.599 277.784 372.599 276.888C372.599 276.109 372.658 275.517 372.775 275.112C372.967 274.376 373.351 273.795 373.927 273.368C374.503 272.941 375.202 272.728 376.023 272.728C377.1 272.728 377.906 273 378.439 273.544C378.972 274.077 379.298 274.867 379.415 275.912ZM376.023 274.056C375.564 274.056 375.186 274.173 374.887 274.408C374.588 274.632 374.386 274.936 374.279 275.32C374.204 275.555 374.156 275.853 374.135 276.216C374.135 276.259 374.156 276.28 374.199 276.28H377.863C377.906 276.28 377.927 276.259 377.927 276.216C377.906 275.864 377.874 275.603 377.831 275.432C377.724 275.016 377.511 274.685 377.191 274.44C376.882 274.184 376.492 274.056 376.023 274.056ZM384.969 272.776C385.311 272.776 385.62 272.845 385.897 272.984C385.972 273.016 385.999 273.08 385.977 273.176L385.721 274.376C385.711 274.472 385.647 274.504 385.529 274.472C385.348 274.397 385.135 274.36 384.889 274.36L384.665 274.376C384.164 274.397 383.748 274.573 383.417 274.904C383.097 275.224 382.937 275.645 382.937 276.168V280.84C382.937 280.947 382.884 281 382.777 281H381.561C381.455 281 381.401 280.947 381.401 280.84V273.016C381.401 272.909 381.455 272.856 381.561 272.856H382.777C382.884 272.856 382.937 272.909 382.937 273.016V273.864C382.937 273.896 382.943 273.917 382.953 273.928C382.975 273.928 382.991 273.917 383.001 273.896C383.481 273.149 384.137 272.776 384.969 272.776ZM393.947 274.904C394.149 275.48 394.251 276.163 394.251 276.952C394.251 277.699 394.165 278.344 393.995 278.888C393.771 279.603 393.403 280.157 392.891 280.552C392.379 280.936 391.723 281.128 390.923 281.128C390.56 281.128 390.213 281.059 389.883 280.92C389.563 280.771 389.285 280.563 389.051 280.296C389.029 280.275 389.008 280.269 388.987 280.28C388.976 280.291 388.971 280.307 388.971 280.328V283.896C388.971 284.003 388.917 284.056 388.811 284.056H387.595C387.488 284.056 387.435 284.003 387.435 283.896V273.016C387.435 272.909 387.488 272.856 387.595 272.856H388.811C388.917 272.856 388.971 272.909 388.971 273.016V273.544C388.971 273.565 388.976 273.581 388.987 273.592C389.008 273.603 389.029 273.597 389.051 273.576C389.285 273.309 389.563 273.101 389.883 272.952C390.203 272.803 390.549 272.728 390.923 272.728C391.691 272.728 392.325 272.92 392.827 273.304C393.339 273.677 393.712 274.211 393.947 274.904ZM392.187 279.032C392.528 278.52 392.699 277.816 392.699 276.92C392.699 276.099 392.565 275.437 392.299 274.936C391.989 274.349 391.483 274.056 390.779 274.056C390.16 274.056 389.691 274.344 389.371 274.92C389.115 275.379 388.987 276.051 388.987 276.936C388.987 277.832 389.125 278.515 389.403 278.984C389.712 279.528 390.165 279.8 390.763 279.8C391.403 279.8 391.877 279.544 392.187 279.032ZM399.829 272.776C400.17 272.776 400.479 272.845 400.757 272.984C400.831 273.016 400.858 273.08 400.837 273.176L400.581 274.376C400.57 274.472 400.506 274.504 400.389 274.472C400.207 274.397 399.994 274.36 399.749 274.36L399.525 274.376C399.023 274.397 398.607 274.573 398.277 274.904C397.957 275.224 397.797 275.645 397.797 276.168V280.84C397.797 280.947 397.743 281 397.637 281H396.421C396.314 281 396.261 280.947 396.261 280.84V273.016C396.261 272.909 396.314 272.856 396.421 272.856H397.637C397.743 272.856 397.797 272.909 397.797 273.016V273.864C397.797 273.896 397.802 273.917 397.813 273.928C397.834 273.928 397.85 273.917 397.861 273.896C398.341 273.149 398.997 272.776 399.829 272.776ZM403.126 271.576C402.827 271.576 402.582 271.48 402.39 271.288C402.198 271.096 402.102 270.851 402.102 270.552C402.102 270.253 402.198 270.008 402.39 269.816C402.582 269.624 402.827 269.528 403.126 269.528C403.425 269.528 403.67 269.624 403.862 269.816C404.054 270.008 404.15 270.253 404.15 270.552C404.15 270.851 404.054 271.096 403.862 271.288C403.67 271.48 403.425 271.576 403.126 271.576ZM402.486 280.984C402.379 280.984 402.326 280.931 402.326 280.824V273.016C402.326 272.909 402.379 272.856 402.486 272.856H403.702C403.809 272.856 403.862 272.909 403.862 273.016V280.824C403.862 280.931 403.809 280.984 403.702 280.984H402.486ZM409.14 281.096C408.5 281.096 407.935 281 407.444 280.808C406.964 280.616 406.591 280.355 406.324 280.024C406.058 279.683 405.924 279.309 405.924 278.904V278.728C405.924 278.621 405.978 278.568 406.084 278.568H407.236C407.343 278.568 407.396 278.621 407.396 278.728V278.808C407.396 279.107 407.556 279.368 407.876 279.592C408.207 279.816 408.623 279.928 409.124 279.928C409.604 279.928 409.994 279.827 410.292 279.624C410.591 279.411 410.74 279.144 410.74 278.824C410.74 278.515 410.602 278.285 410.324 278.136C410.047 277.976 409.599 277.811 408.98 277.64C408.372 277.469 407.86 277.299 407.444 277.128C407.039 276.947 406.692 276.696 406.404 276.376C406.127 276.045 405.988 275.624 405.988 275.112C405.988 274.397 406.266 273.832 406.82 273.416C407.386 272.989 408.132 272.776 409.06 272.776C409.679 272.776 410.223 272.877 410.692 273.08C411.172 273.272 411.54 273.544 411.796 273.896C412.052 274.248 412.18 274.643 412.18 275.08V275.128C412.18 275.235 412.127 275.288 412.02 275.288H410.9C410.794 275.288 410.74 275.235 410.74 275.128V275.08C410.74 274.771 410.586 274.515 410.276 274.312C409.978 274.099 409.567 273.992 409.044 273.992C408.575 273.992 408.191 274.083 407.892 274.264C407.604 274.445 407.46 274.691 407.46 275C407.46 275.309 407.599 275.544 407.876 275.704C408.164 275.864 408.623 276.035 409.252 276.216C409.871 276.387 410.383 276.557 410.788 276.728C411.204 276.888 411.556 277.133 411.844 277.464C412.132 277.784 412.276 278.205 412.276 278.728C412.276 279.453 411.988 280.029 411.412 280.456C410.847 280.883 410.09 281.096 409.14 281.096ZM420.665 275.912C420.708 276.349 420.724 276.84 420.713 277.384C420.713 277.491 420.66 277.544 420.553 277.544H415.449C415.406 277.544 415.385 277.565 415.385 277.608C415.385 277.971 415.417 278.248 415.481 278.44C415.598 278.867 415.833 279.203 416.185 279.448C416.548 279.683 417.001 279.8 417.545 279.8C418.334 279.8 418.942 279.475 419.369 278.824C419.422 278.717 419.492 278.701 419.577 278.776L420.489 279.384C420.564 279.448 420.58 279.517 420.537 279.592C420.238 280.072 419.812 280.451 419.257 280.728C418.713 281.005 418.094 281.144 417.401 281.144C416.622 281.144 415.966 280.973 415.433 280.632C414.9 280.291 414.5 279.805 414.233 279.176C413.977 278.547 413.849 277.784 413.849 276.888C413.849 276.109 413.908 275.517 414.025 275.112C414.217 274.376 414.601 273.795 415.177 273.368C415.753 272.941 416.452 272.728 417.273 272.728C418.35 272.728 419.156 273 419.689 273.544C420.222 274.077 420.548 274.867 420.665 275.912ZM417.273 274.056C416.814 274.056 416.436 274.173 416.137 274.408C415.838 274.632 415.636 274.936 415.529 275.32C415.454 275.555 415.406 275.853 415.385 276.216C415.385 276.259 415.406 276.28 415.449 276.28H419.113C419.156 276.28 419.177 276.259 419.177 276.216C419.156 275.864 419.124 275.603 419.081 275.432C418.974 275.016 418.761 274.685 418.441 274.44C418.132 274.184 417.742 274.056 417.273 274.056ZM425.39 281.096C424.75 281.096 424.185 281 423.694 280.808C423.214 280.616 422.841 280.355 422.574 280.024C422.308 279.683 422.174 279.309 422.174 278.904V278.728C422.174 278.621 422.228 278.568 422.334 278.568H423.486C423.593 278.568 423.646 278.621 423.646 278.728V278.808C423.646 279.107 423.806 279.368 424.126 279.592C424.457 279.816 424.873 279.928 425.374 279.928C425.854 279.928 426.244 279.827 426.542 279.624C426.841 279.411 426.99 279.144 426.99 278.824C426.99 278.515 426.852 278.285 426.574 278.136C426.297 277.976 425.849 277.811 425.23 277.64C424.622 277.469 424.11 277.299 423.694 277.128C423.289 276.947 422.942 276.696 422.654 276.376C422.377 276.045 422.238 275.624 422.238 275.112C422.238 274.397 422.516 273.832 423.07 273.416C423.636 272.989 424.382 272.776 425.31 272.776C425.929 272.776 426.473 272.877 426.942 273.08C427.422 273.272 427.79 273.544 428.046 273.896C428.302 274.248 428.43 274.643 428.43 275.08V275.128C428.43 275.235 428.377 275.288 428.27 275.288H427.15C427.044 275.288 426.99 275.235 426.99 275.128V275.08C426.99 274.771 426.836 274.515 426.526 274.312C426.228 274.099 425.817 273.992 425.294 273.992C424.825 273.992 424.441 274.083 424.142 274.264C423.854 274.445 423.71 274.691 423.71 275C423.71 275.309 423.849 275.544 424.126 275.704C424.414 275.864 424.873 276.035 425.502 276.216C426.121 276.387 426.633 276.557 427.038 276.728C427.454 276.888 427.806 277.133 428.094 277.464C428.382 277.784 428.526 278.205 428.526 278.728C428.526 279.453 428.238 280.029 427.662 280.456C427.097 280.883 426.34 281.096 425.39 281.096ZM437.542 273.96C437.542 274.067 437.489 274.12 437.382 274.12H435.654C435.612 274.12 435.59 274.141 435.59 274.184V278.424C435.59 278.872 435.692 279.197 435.894 279.4C436.097 279.592 436.412 279.688 436.838 279.688H437.302C437.409 279.688 437.462 279.741 437.462 279.848V280.84C437.462 280.947 437.409 281 437.302 281C436.961 281.021 436.716 281.032 436.566 281.032C435.756 281.032 435.142 280.888 434.726 280.6C434.321 280.301 434.118 279.757 434.118 278.968V274.184C434.118 274.141 434.097 274.12 434.054 274.12H433.078C432.972 274.12 432.918 274.067 432.918 273.96V273.016C432.918 272.909 432.972 272.856 433.078 272.856H434.054C434.097 272.856 434.118 272.835 434.118 272.792V270.904C434.118 270.797 434.172 270.744 434.278 270.744H435.43C435.537 270.744 435.59 270.797 435.59 270.904V272.792C435.59 272.835 435.612 272.856 435.654 272.856H437.382C437.489 272.856 437.542 272.909 437.542 273.016V273.96ZM442.573 281.128C441.784 281.128 441.096 280.931 440.509 280.536C439.922 280.131 439.512 279.571 439.277 278.856C439.085 278.28 438.989 277.629 438.989 276.904C438.989 276.147 439.08 275.507 439.261 274.984C439.496 274.28 439.906 273.731 440.493 273.336C441.08 272.931 441.778 272.728 442.589 272.728C443.357 272.728 444.024 272.931 444.589 273.336C445.165 273.731 445.576 274.275 445.821 274.968C446.013 275.512 446.109 276.152 446.109 276.888C446.109 277.635 446.013 278.291 445.821 278.856C445.586 279.571 445.181 280.131 444.605 280.536C444.029 280.931 443.352 281.128 442.573 281.128ZM442.573 279.8C443 279.8 443.373 279.683 443.693 279.448C444.013 279.203 444.242 278.861 444.381 278.424C444.498 278.019 444.557 277.517 444.557 276.92C444.557 276.323 444.504 275.827 444.397 275.432C444.258 274.995 444.029 274.659 443.709 274.424C443.389 274.179 443 274.056 442.541 274.056C442.104 274.056 441.725 274.179 441.405 274.424C441.085 274.659 440.856 274.995 440.717 275.432C440.6 275.805 440.541 276.301 440.541 276.92C440.541 277.539 440.6 278.04 440.717 278.424C440.845 278.861 441.069 279.203 441.389 279.448C441.72 279.683 442.114 279.8 442.573 279.8ZM457.899 274.968C458.07 275.512 458.155 276.157 458.155 276.904C458.155 277.704 458.054 278.387 457.851 278.952C457.616 279.645 457.243 280.184 456.731 280.568C456.23 280.941 455.595 281.128 454.827 281.128C454.454 281.128 454.107 281.053 453.787 280.904C453.467 280.755 453.19 280.547 452.955 280.28C452.934 280.259 452.912 280.253 452.891 280.264C452.88 280.275 452.875 280.291 452.875 280.312V280.84C452.875 280.947 452.822 281 452.715 281H451.499C451.392 281 451.339 280.947 451.339 280.84V269.96C451.339 269.853 451.392 269.8 451.499 269.8H452.715C452.822 269.8 452.875 269.853 452.875 269.96V273.528C452.875 273.549 452.88 273.565 452.891 273.576C452.912 273.587 452.934 273.581 452.955 273.56C453.19 273.293 453.467 273.091 453.787 272.952C454.118 272.803 454.464 272.728 454.827 272.728C455.627 272.728 456.283 272.925 456.795 273.32C457.307 273.715 457.675 274.264 457.899 274.968ZM456.203 278.92C456.47 278.419 456.603 277.757 456.603 276.936C456.603 276.061 456.432 275.357 456.091 274.824C455.782 274.312 455.307 274.056 454.667 274.056C454.07 274.056 453.616 274.328 453.307 274.872C453.03 275.363 452.891 276.045 452.891 276.92C452.891 277.795 453.019 278.467 453.275 278.936C453.595 279.512 454.064 279.8 454.683 279.8C455.387 279.8 455.894 279.507 456.203 278.92ZM466.665 275.912C466.708 276.349 466.724 276.84 466.713 277.384C466.713 277.491 466.66 277.544 466.553 277.544H461.449C461.406 277.544 461.385 277.565 461.385 277.608C461.385 277.971 461.417 278.248 461.481 278.44C461.598 278.867 461.833 279.203 462.185 279.448C462.548 279.683 463.001 279.8 463.545 279.8C464.334 279.8 464.942 279.475 465.369 278.824C465.422 278.717 465.492 278.701 465.577 278.776L466.489 279.384C466.564 279.448 466.58 279.517 466.537 279.592C466.238 280.072 465.812 280.451 465.257 280.728C464.713 281.005 464.094 281.144 463.401 281.144C462.622 281.144 461.966 280.973 461.433 280.632C460.9 280.291 460.5 279.805 460.233 279.176C459.977 278.547 459.849 277.784 459.849 276.888C459.849 276.109 459.908 275.517 460.025 275.112C460.217 274.376 460.601 273.795 461.177 273.368C461.753 272.941 462.452 272.728 463.273 272.728C464.35 272.728 465.156 273 465.689 273.544C466.222 274.077 466.548 274.867 466.665 275.912ZM463.273 274.056C462.814 274.056 462.436 274.173 462.137 274.408C461.838 274.632 461.636 274.936 461.529 275.32C461.454 275.555 461.406 275.853 461.385 276.216C461.385 276.259 461.406 276.28 461.449 276.28H465.113C465.156 276.28 465.177 276.259 465.177 276.216C465.156 275.864 465.124 275.603 465.081 275.432C464.974 275.016 464.761 274.685 464.441 274.44C464.132 274.184 463.742 274.056 463.273 274.056ZM475.87 273.96C475.87 274.067 475.817 274.12 475.71 274.12H473.982C473.94 274.12 473.918 274.141 473.918 274.184V278.424C473.918 278.872 474.02 279.197 474.222 279.4C474.425 279.592 474.74 279.688 475.166 279.688H475.63C475.737 279.688 475.79 279.741 475.79 279.848V280.84C475.79 280.947 475.737 281 475.63 281C475.289 281.021 475.044 281.032 474.894 281.032C474.084 281.032 473.47 280.888 473.054 280.6C472.649 280.301 472.446 279.757 472.446 278.968V274.184C472.446 274.141 472.425 274.12 472.382 274.12H471.406C471.3 274.12 471.246 274.067 471.246 273.96V273.016C471.246 272.909 471.3 272.856 471.406 272.856H472.382C472.425 272.856 472.446 272.835 472.446 272.792V270.904C472.446 270.797 472.5 270.744 472.606 270.744H473.758C473.865 270.744 473.918 270.797 473.918 270.904V272.792C473.918 272.835 473.94 272.856 473.982 272.856H475.71C475.817 272.856 475.87 272.909 475.87 273.016V273.96ZM481.329 272.776C481.67 272.776 481.979 272.845 482.257 272.984C482.331 273.016 482.358 273.08 482.337 273.176L482.081 274.376C482.07 274.472 482.006 274.504 481.889 274.472C481.707 274.397 481.494 274.36 481.249 274.36L481.025 274.376C480.523 274.397 480.107 274.573 479.777 274.904C479.457 275.224 479.297 275.645 479.297 276.168V280.84C479.297 280.947 479.243 281 479.137 281H477.921C477.814 281 477.761 280.947 477.761 280.84V273.016C477.761 272.909 477.814 272.856 477.921 272.856H479.137C479.243 272.856 479.297 272.909 479.297 273.016V273.864C479.297 273.896 479.302 273.917 479.313 273.928C479.334 273.928 479.35 273.917 479.361 273.896C479.841 273.149 480.497 272.776 481.329 272.776ZM488.546 273.016C488.546 272.909 488.599 272.856 488.706 272.856H489.906C490.013 272.856 490.066 272.909 490.066 273.016V280.84C490.066 280.947 490.013 281 489.906 281H488.706C488.599 281 488.546 280.947 488.546 280.84V280.248C488.546 280.227 488.535 280.216 488.514 280.216C488.503 280.205 488.487 280.211 488.466 280.232C488.039 280.819 487.383 281.112 486.498 281.112C485.975 281.112 485.49 281.011 485.042 280.808C484.605 280.605 484.253 280.307 483.986 279.912C483.719 279.517 483.586 279.037 483.586 278.472V273.016C483.586 272.909 483.639 272.856 483.746 272.856H484.946C485.053 272.856 485.106 272.909 485.106 273.016V277.992C485.106 278.547 485.25 278.984 485.538 279.304C485.837 279.624 486.253 279.784 486.786 279.784C487.319 279.784 487.746 279.624 488.066 279.304C488.386 278.973 488.546 278.536 488.546 277.992V273.016ZM492.468 281C492.361 281 492.308 280.947 492.308 280.84V269.96C492.308 269.853 492.361 269.8 492.468 269.8H493.684C493.79 269.8 493.844 269.853 493.844 269.96V280.84C493.844 280.947 493.79 281 493.684 281H492.468ZM495.833 284.184C495.758 284.184 495.721 284.131 495.721 284.024V283.08C495.721 282.973 495.774 282.92 495.881 282.92H495.913C496.34 282.909 496.676 282.856 496.921 282.76C497.166 282.664 497.369 282.483 497.529 282.216C497.689 281.96 497.844 281.571 497.993 281.048C498.004 281.037 498.004 281.021 497.993 281C497.993 280.968 497.993 280.952 497.993 280.952L495.321 273.032L495.305 272.968C495.305 272.893 495.353 272.856 495.449 272.856H496.745C496.841 272.856 496.905 272.899 496.937 272.984L498.745 279.016C498.756 279.037 498.772 279.048 498.793 279.048C498.814 279.048 498.83 279.037 498.841 279.016L500.633 272.984C500.665 272.899 500.729 272.856 500.825 272.856H502.089C502.206 272.856 502.249 272.915 502.217 273.032L499.305 281.56C499.06 282.296 498.814 282.84 498.569 283.192C498.324 283.555 498.004 283.811 497.609 283.96C497.214 284.109 496.66 284.184 495.945 284.184H495.833ZM506.006 273.416C505.942 273.416 505.894 273.4 505.862 273.368C505.83 273.325 505.824 273.267 505.846 273.192L506.998 269.96C507.03 269.853 507.099 269.8 507.206 269.8H508.55C508.699 269.8 508.758 269.869 508.726 270.008L507.99 273.24C507.958 273.357 507.888 273.416 507.782 273.416H506.006ZM508.838 273.416C508.774 273.416 508.726 273.4 508.694 273.368C508.662 273.325 508.656 273.267 508.678 273.192L509.814 269.96C509.846 269.853 509.915 269.8 510.022 269.8H511.366C511.504 269.8 511.558 269.869 511.526 270.008L510.822 273.24C510.8 273.357 510.731 273.416 510.614 273.416H508.838ZM518.643 281C518.536 281 518.467 280.947 518.435 280.84L517.955 279.272C517.934 279.229 517.907 279.208 517.875 279.208H513.939C513.907 279.208 513.88 279.229 513.859 279.272L513.395 280.84C513.363 280.947 513.294 281 513.187 281H511.155C511.091 281 511.043 280.984 511.011 280.952C510.979 280.909 510.974 280.851 510.995 280.776L514.451 269.96C514.483 269.853 514.552 269.8 514.659 269.8H517.171C517.278 269.8 517.347 269.853 517.379 269.96L520.835 280.776C520.846 280.797 520.851 280.824 520.851 280.856C520.851 280.952 520.792 281 520.675 281H518.643ZM514.435 277.368C514.424 277.432 514.446 277.464 514.499 277.464H517.315C517.379 277.464 517.4 277.432 517.379 277.368L515.939 272.616C515.928 272.573 515.912 272.557 515.891 272.568C515.87 272.568 515.854 272.584 515.843 272.616L514.435 277.368ZM522.449 281C522.396 281 522.348 280.984 522.305 280.952C522.273 280.909 522.257 280.861 522.257 280.808V269.992C522.257 269.939 522.273 269.896 522.305 269.864C522.348 269.821 522.396 269.8 522.449 269.8H524.321C524.375 269.8 524.417 269.821 524.449 269.864C524.492 269.896 524.513 269.939 524.513 269.992V280.808C524.513 280.861 524.492 280.909 524.449 280.952C524.417 280.984 524.375 281 524.321 281H522.449ZM529.344 277.24C529.29 277.24 529.242 277.224 529.2 277.192C529.168 277.149 529.152 277.101 529.152 277.048V275.496C529.152 275.443 529.168 275.4 529.2 275.368C529.242 275.325 529.29 275.304 529.344 275.304H534.576C534.629 275.304 534.672 275.325 534.704 275.368C534.746 275.4 534.768 275.443 534.768 275.496V277.048C534.768 277.101 534.746 277.149 534.704 277.192C534.672 277.224 534.629 277.24 534.576 277.24H529.344ZM545.846 269.992C545.846 269.939 545.862 269.896 545.894 269.864C545.936 269.821 545.984 269.8 546.038 269.8H547.91C547.963 269.8 548.006 269.821 548.038 269.864C548.08 269.896 548.102 269.939 548.102 269.992V280.808C548.102 280.861 548.08 280.909 548.038 280.952C548.006 280.984 547.963 281 547.91 281H546.102C545.995 281 545.92 280.957 545.878 280.872L541.734 274.024C541.712 273.992 541.691 273.981 541.67 273.992C541.648 273.992 541.638 274.013 541.638 274.056L541.67 280.808C541.67 280.861 541.648 280.909 541.606 280.952C541.574 280.984 541.531 281 541.478 281H539.606C539.552 281 539.504 280.984 539.462 280.952C539.43 280.909 539.414 280.861 539.414 280.808V269.992C539.414 269.939 539.43 269.896 539.462 269.864C539.504 269.821 539.552 269.8 539.606 269.8H541.414C541.52 269.8 541.595 269.843 541.638 269.928L545.766 276.744C545.787 276.776 545.808 276.792 545.83 276.792C545.851 276.781 545.862 276.755 545.862 276.712L545.846 269.992ZM553.19 272.648C553.883 272.648 554.502 272.771 555.046 273.016C555.59 273.251 556.011 273.576 556.31 273.992C556.619 274.408 556.774 274.872 556.774 275.384V280.808C556.774 280.861 556.753 280.909 556.71 280.952C556.678 280.984 556.635 281 556.582 281H554.71C554.657 281 554.609 280.984 554.566 280.952C554.534 280.909 554.518 280.861 554.518 280.808V280.28C554.518 280.248 554.507 280.227 554.486 280.216C554.465 280.205 554.443 280.216 554.422 280.248C553.974 280.835 553.254 281.128 552.262 281.128C551.43 281.128 550.758 280.925 550.246 280.52C549.734 280.115 549.478 279.517 549.478 278.728C549.478 277.907 549.766 277.272 550.342 276.824C550.918 276.365 551.739 276.136 552.806 276.136H554.438C554.491 276.136 554.518 276.109 554.518 276.056V275.704C554.518 275.352 554.411 275.08 554.198 274.888C553.985 274.685 553.665 274.584 553.238 274.584C552.907 274.584 552.63 274.643 552.406 274.76C552.193 274.877 552.054 275.043 551.99 275.256C551.958 275.373 551.889 275.427 551.782 275.416L549.846 275.16C549.718 275.139 549.659 275.091 549.67 275.016C549.713 274.568 549.889 274.163 550.198 273.8C550.518 273.437 550.934 273.155 551.446 272.952C551.969 272.749 552.55 272.648 553.19 272.648ZM552.87 279.448C553.329 279.448 553.718 279.325 554.038 279.08C554.358 278.835 554.518 278.52 554.518 278.136V277.56C554.518 277.507 554.491 277.48 554.438 277.48H553.286C552.806 277.48 552.427 277.571 552.15 277.752C551.883 277.933 551.75 278.189 551.75 278.52C551.75 278.808 551.851 279.037 552.054 279.208C552.257 279.368 552.529 279.448 552.87 279.448ZM562.911 274.392C562.911 274.445 562.89 274.493 562.847 274.536C562.815 274.568 562.773 274.584 562.719 274.584H561.183C561.13 274.584 561.103 274.611 561.103 274.664V278.056C561.103 278.408 561.173 278.669 561.311 278.84C561.461 279.011 561.695 279.096 562.015 279.096H562.543C562.597 279.096 562.639 279.117 562.671 279.16C562.714 279.192 562.735 279.235 562.735 279.288V280.808C562.735 280.925 562.671 280.995 562.543 281.016C562.095 281.037 561.775 281.048 561.583 281.048C560.698 281.048 560.037 280.904 559.599 280.616C559.162 280.317 558.938 279.763 558.927 278.952V274.664C558.927 274.611 558.901 274.584 558.847 274.584H557.935C557.882 274.584 557.834 274.568 557.791 274.536C557.759 274.493 557.743 274.445 557.743 274.392V272.968C557.743 272.915 557.759 272.872 557.791 272.84C557.834 272.797 557.882 272.776 557.935 272.776H558.847C558.901 272.776 558.927 272.749 558.927 272.696V270.792C558.927 270.739 558.943 270.696 558.975 270.664C559.018 270.621 559.066 270.6 559.119 270.6H560.911C560.965 270.6 561.007 270.621 561.039 270.664C561.082 270.696 561.103 270.739 561.103 270.792V272.696C561.103 272.749 561.13 272.776 561.183 272.776H562.719C562.773 272.776 562.815 272.797 562.847 272.84C562.89 272.872 562.911 272.915 562.911 272.968V274.392ZM565.486 271.848C565.123 271.848 564.819 271.731 564.574 271.496C564.339 271.251 564.222 270.947 564.222 270.584C564.222 270.211 564.339 269.907 564.574 269.672C564.808 269.437 565.112 269.32 565.486 269.32C565.859 269.32 566.163 269.437 566.398 269.672C566.632 269.907 566.75 270.211 566.75 270.584C566.75 270.947 566.627 271.251 566.382 271.496C566.147 271.731 565.848 271.848 565.486 271.848ZM564.526 281C564.472 281 564.424 280.984 564.382 280.952C564.35 280.909 564.334 280.861 564.334 280.808V272.952C564.334 272.899 564.35 272.856 564.382 272.824C564.424 272.781 564.472 272.76 564.526 272.76H566.398C566.451 272.76 566.494 272.781 566.526 272.824C566.568 272.856 566.59 272.899 566.59 272.952V280.808C566.59 280.861 566.568 280.909 566.526 280.952C566.494 280.984 566.451 281 566.398 281H564.526ZM570.636 281C570.529 281 570.46 280.947 570.428 280.84L567.868 272.984C567.857 272.963 567.852 272.936 567.852 272.904C567.852 272.808 567.91 272.76 568.028 272.76H570.092C570.209 272.76 570.284 272.813 570.316 272.92L571.628 277.768C571.638 277.8 571.654 277.816 571.676 277.816C571.697 277.816 571.713 277.8 571.724 277.768L573.036 272.92C573.068 272.813 573.142 272.76 573.26 272.76L575.324 272.792C575.388 272.792 575.436 272.813 575.468 272.856C575.5 272.888 575.505 272.941 575.484 273.016L572.94 280.84C572.908 280.947 572.838 281 572.732 281H570.636ZM583.409 276.04C583.473 276.445 583.494 276.899 583.473 277.4C583.462 277.528 583.393 277.592 583.265 277.592H578.321C578.257 277.592 578.236 277.619 578.257 277.672C578.289 277.885 578.348 278.099 578.433 278.312C578.71 278.909 579.276 279.208 580.129 279.208C580.812 279.197 581.35 278.92 581.745 278.376C581.788 278.312 581.836 278.28 581.889 278.28C581.921 278.28 581.958 278.301 582.001 278.344L583.153 279.48C583.206 279.533 583.233 279.581 583.233 279.624C583.233 279.645 583.212 279.688 583.169 279.752C582.817 280.189 582.364 280.531 581.809 280.776C581.254 281.011 580.646 281.128 579.985 281.128C579.068 281.128 578.289 280.92 577.649 280.504C577.02 280.088 576.566 279.507 576.289 278.76C576.065 278.227 575.953 277.528 575.953 276.664C575.953 276.077 576.033 275.56 576.193 275.112C576.438 274.355 576.865 273.752 577.473 273.304C578.092 272.856 578.822 272.632 579.665 272.632C580.732 272.632 581.585 272.941 582.225 273.56C582.876 274.179 583.27 275.005 583.409 276.04ZM579.681 274.584C579.009 274.584 578.566 274.899 578.353 275.528C578.31 275.667 578.273 275.837 578.241 276.04C578.241 276.093 578.268 276.12 578.321 276.12H581.089C581.153 276.12 581.174 276.093 581.153 276.04C581.1 275.731 581.073 275.581 581.073 275.592C580.977 275.272 580.806 275.027 580.561 274.856C580.326 274.675 580.033 274.584 579.681 274.584ZM586.767 269.8C586.831 269.8 586.879 269.821 586.911 269.864C586.943 269.896 586.949 269.949 586.927 270.024L585.791 273.256C585.759 273.363 585.69 273.416 585.583 273.416H584.239C584.101 273.416 584.047 273.347 584.079 273.208L584.783 269.976C584.805 269.859 584.874 269.8 584.991 269.8H586.767ZM589.599 269.8C589.663 269.8 589.711 269.821 589.743 269.864C589.775 269.896 589.781 269.949 589.759 270.024L588.607 273.256C588.575 273.363 588.506 273.416 588.399 273.416H587.055C586.906 273.416 586.847 273.347 586.879 273.208L587.615 269.976C587.647 269.859 587.717 269.8 587.823 269.8H589.599Z" fill="#313265"/>
<defs>
<linearGradient id="paint0_linear_357_1647" x1="20.8382" y1="93.8098" x2="190.149" y2="4.09705" gradientUnits="userSpaceOnUse">
<stop offset="0.013931" stop-color="#D8353B"/>
<stop offset="0.1478" stop-color="#DD4E37"/>
<stop offset="0.4031" stop-color="#E86F2F"/>
<stop offset="0.6387" stop-color="#EE8426"/>
<stop offset="0.8452" stop-color="#F59222"/>
<stop offset="1" stop-color="#F89822"/>
</linearGradient>
<linearGradient id="paint1_linear_357_1647" x1="-0.224196" y1="103.005" x2="16.0756" y2="103.005" gradientUnits="userSpaceOnUse">
<stop offset="0.013931" stop-color="#D8353B"/>
<stop offset="0.3849" stop-color="#D8353B"/>
</linearGradient>
<linearGradient id="paint2_linear_357_1647" x1="-2.12341e-07" y1="149.105" x2="192.046" y2="146.401" gradientUnits="userSpaceOnUse">
<stop stop-color="#F46F22"/>
<stop offset="1" stop-color="#313265"/>
</linearGradient>
<linearGradient id="paint3_linear_357_1647" x1="-2.12341e-07" y1="187.25" x2="192.009" y2="183.432" gradientUnits="userSpaceOnUse">
<stop stop-color="#F46F22"/>
<stop offset="1" stop-color="#313265"/>
</linearGradient>
<linearGradient id="paint4_linear_357_1647" x1="284" y1="243.25" x2="611.766" y2="232.117" gradientUnits="userSpaceOnUse">
<stop stop-color="#F46F22"/>
<stop offset="1" stop-color="#313265"/>
</linearGradient>
</defs>
</svg>
