<svg width="450" height="143" viewBox="0 0 450 143" fill="none" xmlns="http://www.w3.org/2000/svg">
<path d="M0 10C0 4.47715 4.47715 0 10 0H440C445.523 0 450 4.47715 450 10V132.969C450 138.492 445.523 142.969 440 142.969H229.096C226.471 142.969 223.952 141.937 222.081 140.095L190.419 108.928C188.548 107.087 186.029 106.055 183.404 106.055H10C4.47715 106.055 0 101.578 0 96.0547V10Z" fill="#F46F22" fill-opacity="0.15"/>
<circle cx="362.109" cy="48.0469" r="28.7969" fill="#F46F22" fill-opacity="0.5" stroke="#F46F22"/>
<path d="M377.344 30.4688L377.344 65.625" stroke="white" stroke-width="2" stroke-linecap="round"/>
<path d="M376.172 48.6324L363.867 48.6325L363.866 35.1561L351.562 35.1561" stroke="white" stroke-linejoin="round"/>
<path d="M376.172 48.6326L363.865 48.6328L363.865 61.8418L351.562 61.8418" stroke="white" stroke-linejoin="round"/>
<rect x="344.531" y="31.6406" width="7.03125" height="7.03125" fill="white"/>
<rect x="344.531" y="44.5312" width="7.03125" height="7.03125" fill="white"/>
<rect x="344.531" y="58.5938" width="7.03125" height="7.03125" fill="white"/>
<rect x="351.562" y="48.0469" width="24.6094" height="1.17188" fill="white"/>
<mask id="mask0_2008_701" style="mask-type:alpha" maskUnits="userSpaceOnUse" x="254" y="30" width="118" height="96">
<path d="M312.802 31.2914L312.802 31.2913C312.767 31.256 312.747 31.208 312.747 31.1577C312.747 31.1076 312.767 31.0595 312.802 31.024C312.838 30.9887 312.886 30.9688 312.936 30.9688H317.415C317.465 30.9688 317.513 30.9887 317.549 31.024C317.584 31.0595 317.604 31.1076 317.604 31.1577C317.604 31.208 317.584 31.256 317.549 31.2913L317.549 31.2914C317.513 31.3269 317.465 31.3468 317.415 31.3468H312.936C312.886 31.3468 312.838 31.3269 312.802 31.2914Z" stroke="black"/>
<path d="M365.276 59.6296H261.187C259.543 59.6296 257.965 58.9762 256.802 57.8132C255.639 56.6502 254.986 55.0728 254.986 53.4281V36.6839C254.986 35.0392 255.639 33.4618 256.802 32.2988C257.965 31.1359 259.543 30.4824 261.187 30.4824H308.084C308.267 30.4824 308.442 30.555 308.572 30.6843C308.701 30.8135 308.774 30.9888 308.774 31.1715C308.774 31.3543 308.701 31.5295 308.572 31.6587C308.442 31.7879 308.267 31.8606 308.084 31.8606H261.187C259.908 31.8606 258.681 32.3688 257.777 33.2733C256.872 34.1779 256.364 35.4047 256.364 36.6839V53.4143C256.364 54.6935 256.872 55.9204 257.777 56.8249C258.681 57.7295 259.908 58.2377 261.187 58.2377H365.276C366.556 58.2377 367.782 57.7295 368.687 56.8249C369.591 55.9204 370.099 54.6935 370.099 53.4143V36.6839C370.099 35.4047 369.591 34.1779 368.687 33.2733C367.782 32.3688 366.556 31.8606 365.276 31.8606H325.959C325.776 31.8606 325.601 31.7879 325.471 31.6587C325.342 31.5295 325.27 31.3543 325.27 31.1715C325.27 30.9888 325.342 30.8135 325.471 30.6843C325.601 30.555 325.776 30.4824 325.959 30.4824H365.283C366.928 30.4824 368.505 31.1359 369.668 32.2988C370.831 33.4618 371.484 35.0392 371.484 36.6839V53.4143C371.486 54.2304 371.327 55.0389 371.015 55.7933C370.704 56.5478 370.247 57.2333 369.671 57.8108C369.094 58.3882 368.409 58.8461 367.655 59.1582C366.9 59.4703 366.092 59.6305 365.276 59.6296Z" fill="#2985C1"/>
<path d="M321.528 31.8468H319.916C319.733 31.8468 319.558 31.7742 319.429 31.6449C319.3 31.5158 319.227 31.3405 319.227 31.1577C319.227 30.975 319.3 30.7997 319.429 30.6705C319.558 30.5413 319.733 30.4688 319.916 30.4688H321.528C321.711 30.4688 321.886 30.5413 322.016 30.6705C322.145 30.7997 322.218 30.975 322.218 31.1577C322.218 31.3405 322.145 31.5158 322.016 31.6449C321.886 31.7742 321.711 31.8468 321.528 31.8468Z" fill="#2985C1"/>
<path d="M265.542 50.1483C264.435 50.1497 263.353 49.8227 262.432 49.2088C261.511 48.5947 260.792 47.7214 260.368 46.6991C259.943 45.6768 259.832 44.5516 260.047 43.4659C260.262 42.38 260.794 41.3825 261.576 40.5993C262.359 39.8161 263.356 39.2825 264.441 39.066C265.527 38.8496 266.652 38.96 267.675 39.3833C268.697 39.8066 269.572 40.5237 270.187 41.444C270.802 42.3643 271.13 43.4462 271.13 44.5532C271.13 46.0359 270.542 47.458 269.494 48.5071C268.446 49.5562 267.025 50.1465 265.542 50.1483ZM265.542 40.343C264.707 40.3417 263.891 40.588 263.197 41.0509C262.502 41.5137 261.96 42.1723 261.64 42.9431C261.32 43.7139 261.236 44.5624 261.399 45.3811C261.561 46.1997 261.963 46.9518 262.553 47.542C263.143 48.1321 263.896 48.5339 264.714 48.6964C265.533 48.8589 266.381 48.7748 267.152 48.4547C267.923 48.1347 268.581 47.5932 269.044 46.8986C269.507 46.2041 269.754 45.3878 269.752 44.5532C269.75 43.4372 269.306 42.3673 268.517 41.5782C267.728 40.789 266.658 40.3448 265.542 40.343Z" fill="#2985C1"/>
<path d="M280.233 50.1483C279.126 50.1497 278.044 49.8227 277.123 49.2088C276.202 48.5947 275.483 47.7214 275.059 46.6991C274.634 45.6768 274.522 44.5516 274.738 43.4659C274.953 42.38 275.485 41.3825 276.267 40.5993C277.049 39.8161 278.046 39.2825 279.132 39.066C280.217 38.8496 281.343 38.96 282.366 39.3833C283.388 39.8066 284.263 40.5237 284.878 41.444C285.493 42.3643 285.821 43.4462 285.821 44.5532C285.821 46.0359 285.233 47.458 284.185 48.5071C283.137 49.5562 281.716 50.1465 280.233 50.1483ZM280.233 40.343C279.398 40.3417 278.582 40.588 277.888 41.0509C277.193 41.5137 276.651 42.1723 276.331 42.9431C276.011 43.7139 275.927 44.5624 276.09 45.3811C276.252 46.1997 276.654 46.9518 277.244 47.542C277.834 48.1321 278.586 48.5339 279.405 48.6964C280.224 48.8589 281.072 48.7748 281.843 48.4547C282.614 48.1347 283.272 47.5932 283.735 46.8986C284.198 46.2041 284.444 45.3878 284.443 44.5532C284.441 43.4372 283.997 42.3673 283.208 41.5782C282.419 40.789 281.349 40.3448 280.233 40.343Z" fill="#2985C1"/>
<path d="M295.523 50.2029C294.418 50.1961 293.339 49.862 292.423 49.2427C291.508 48.6235 290.796 47.747 290.378 46.7236C289.96 45.7002 289.854 44.5759 290.075 43.4927C290.295 42.4094 290.831 41.4157 291.616 40.6369C292.4 39.8582 293.398 39.3293 294.483 39.1169C295.568 38.9045 296.691 39.0184 297.711 39.4439C298.732 39.8694 299.603 40.5876 300.215 41.5078C300.828 42.4281 301.154 43.5092 301.153 44.6146C301.152 45.3517 301.005 46.0814 300.721 46.7617C300.438 47.442 300.022 48.0595 299.499 48.5787C298.976 49.098 298.356 49.5088 297.673 49.7875C296.991 50.0662 296.26 50.2075 295.523 50.2029ZM295.523 40.3976C294.691 40.4045 293.879 40.6575 293.19 41.125C292.501 41.5925 291.966 42.2534 291.652 43.0246C291.338 43.7957 291.259 44.6425 291.426 45.4583C291.592 46.274 291.997 47.0222 292.588 47.6085C293.179 48.1948 293.93 48.593 294.747 48.753C295.564 48.9129 296.411 48.8275 297.179 48.5073C297.948 48.1871 298.604 47.6466 299.066 46.9538C299.528 46.2611 299.774 45.4472 299.775 44.6146C299.775 44.0579 299.664 43.5067 299.45 42.9928C299.236 42.479 298.923 42.0125 298.527 41.6205C298.132 41.2285 297.663 40.9185 297.147 40.7087C296.632 40.4988 296.08 40.3931 295.523 40.3976Z" fill="#2985C1"/>
<path d="M356.186 50.1761H313.258C312.507 50.2025 311.758 50.0773 311.057 49.8082C310.356 49.5391 309.716 49.1315 309.175 48.6096C308.635 48.0877 308.205 47.4624 307.911 46.7708C307.618 46.0794 307.466 45.3358 307.466 44.5844C307.466 43.8331 307.618 43.0895 307.911 42.398C308.205 41.7064 308.635 41.0811 309.175 40.5593C309.716 40.0374 310.356 39.6297 311.057 39.3606C311.758 39.0915 312.507 38.9664 313.258 38.9927H356.186C356.937 38.9664 357.685 39.0915 358.386 39.3606C359.088 39.6297 359.728 40.0374 360.269 40.5593C360.809 41.0811 361.239 41.7064 361.533 42.398C361.826 43.0895 361.978 43.8331 361.978 44.5844C361.978 45.3358 361.826 46.0794 361.533 46.7708C361.239 47.4624 360.809 48.0877 360.269 48.6096C359.728 49.1315 359.088 49.5391 358.386 49.8082C357.685 50.0773 356.937 50.2025 356.186 50.1761ZM313.258 40.3708C312.69 40.3478 312.124 40.4399 311.592 40.6413C311.061 40.8427 310.576 41.1493 310.166 41.5429C309.757 41.9364 309.431 42.4087 309.208 42.9313C308.985 43.454 308.87 44.0163 308.87 44.5844C308.87 45.1525 308.985 45.7149 309.208 46.2375C309.431 46.7602 309.757 47.2325 310.166 47.626C310.576 48.0195 311.061 48.3261 311.592 48.5275C312.124 48.729 312.69 48.821 313.258 48.798H356.186C356.753 48.821 357.32 48.729 357.851 48.5275C358.382 48.3261 358.868 48.0195 359.277 47.626C359.687 47.2325 360.013 46.7602 360.236 46.2375C360.459 45.7149 360.574 45.1525 360.574 44.5844C360.574 44.0163 360.459 43.454 360.236 42.9313C360.013 42.4087 359.687 41.9364 359.277 41.5429C358.868 41.1493 358.382 40.8427 357.851 40.6413C357.32 40.4399 356.753 40.3478 356.186 40.3708H313.258Z" fill="#2985C1"/>
<path d="M356.186 83.1713H313.258C312.507 83.1976 311.758 83.0724 311.057 82.8033C310.356 82.5342 309.716 82.1266 309.175 81.6047C308.635 81.0829 308.205 80.4575 307.911 79.7659C307.618 79.0745 307.466 78.3309 307.466 77.5795C307.466 76.8282 307.618 76.0846 307.911 75.3931C308.205 74.7016 308.635 74.0762 309.175 73.5544C309.716 73.0325 310.356 72.6249 311.057 72.3557C311.758 72.0866 312.507 71.9615 313.258 71.9878H356.186C356.937 71.9615 357.685 72.0866 358.386 72.3557C359.088 72.6249 359.728 73.0325 360.269 73.5544C360.809 74.0762 361.239 74.7016 361.533 75.3931C361.826 76.0846 361.978 76.8282 361.978 77.5795C361.978 78.3309 361.826 79.0745 361.533 79.7659C361.239 80.4575 360.809 81.0829 360.269 81.6047C359.728 82.1266 359.088 82.5342 358.386 82.8033C357.685 83.0724 356.937 83.1976 356.186 83.1713ZM313.258 73.3659C312.69 73.343 312.124 73.435 311.592 73.6364C311.061 73.8378 310.576 74.1444 310.166 74.538C309.757 74.9315 309.431 75.4038 309.208 75.9264C308.985 76.4491 308.87 77.0114 308.87 77.5795C308.87 78.1476 308.985 78.71 309.208 79.2326C309.431 79.7553 309.757 80.2276 310.166 80.6211C310.576 81.0146 311.061 81.3212 311.592 81.5227C312.124 81.7241 312.69 81.8161 313.258 81.7931H356.186C356.753 81.8161 357.32 81.7241 357.851 81.5227C358.382 81.3212 358.868 81.0146 359.277 80.6211C359.687 80.2276 360.013 79.7553 360.236 79.2326C360.459 78.71 360.574 78.1476 360.574 77.5795C360.574 77.0114 360.459 76.4491 360.236 75.9264C360.013 75.4038 359.687 74.9315 359.277 74.538C358.868 74.1444 358.382 73.8378 357.851 73.6364C357.32 73.435 356.753 73.343 356.186 73.3659H313.258Z" fill="#2985C1"/>
<path d="M265.543 64.2056C265.36 64.2056 265.185 64.133 265.055 64.0038C264.926 63.8746 264.854 63.6994 264.854 63.5166V59.1617C264.854 58.979 264.926 58.8037 265.055 58.6745C265.185 58.5453 265.36 58.4727 265.543 58.4727C265.725 58.4727 265.901 58.5453 266.03 58.6745C266.159 58.8037 266.232 58.979 266.232 59.1617V63.5166C266.232 63.6994 266.159 63.8746 266.03 64.0038C265.901 64.133 265.725 64.2056 265.543 64.2056Z" fill="#2985C1"/>
<path d="M362.478 64.2056C362.296 64.2056 362.121 64.133 361.992 64.0038C361.862 63.8746 361.79 63.6994 361.79 63.5166V59.1617C361.79 58.979 361.862 58.8037 361.992 58.6745C362.121 58.5453 362.296 58.4727 362.478 58.4727C362.661 58.4727 362.837 58.5453 362.966 58.6745C363.095 58.8037 363.168 58.979 363.168 59.1617V63.5166C363.168 63.6994 363.095 63.8746 362.966 64.0038C362.837 64.133 362.661 64.2056 362.478 64.2056Z" fill="#2985C1"/>
<path d="M317.415 123.773H312.936C312.753 123.773 312.578 123.846 312.449 123.975C312.32 124.104 312.247 124.28 312.247 124.462C312.247 124.645 312.32 124.82 312.449 124.95C312.578 125.079 312.753 125.151 312.936 125.151H317.415C317.598 125.151 317.773 125.079 317.902 124.95C318.031 124.82 318.104 124.645 318.104 124.462C318.104 124.28 318.031 124.104 317.902 123.975C317.773 123.846 317.598 123.773 317.415 123.773Z" fill="#2985C1"/>
<path d="M365.276 95.9905H261.187C259.543 95.9905 257.965 96.6439 256.802 97.8069C255.639 98.97 254.986 100.547 254.986 102.192V118.936C254.986 120.581 255.639 122.158 256.802 123.321C257.965 124.484 259.543 125.138 261.187 125.138H308.084C308.267 125.138 308.442 125.065 308.572 124.936C308.701 124.807 308.774 124.631 308.774 124.449C308.774 124.266 308.701 124.091 308.572 123.961C308.442 123.832 308.267 123.76 308.084 123.76H261.187C259.908 123.76 258.681 123.251 257.777 122.347C256.872 121.442 256.364 120.215 256.364 118.936V102.206C256.364 100.927 256.872 99.6998 257.777 98.7952C258.681 97.8906 259.908 97.3825 261.187 97.3825H365.276C366.556 97.3825 367.782 97.8906 368.687 98.7952C369.591 99.6998 370.099 100.927 370.099 102.206V118.936C370.099 120.215 369.591 121.442 368.687 122.347C367.782 123.251 366.556 123.76 365.276 123.76H325.959C325.776 123.76 325.601 123.832 325.471 123.961C325.342 124.091 325.27 124.266 325.27 124.449C325.27 124.631 325.342 124.807 325.471 124.936C325.601 125.065 325.776 125.138 325.959 125.138H365.283C366.928 125.138 368.505 124.484 369.668 123.321C370.831 122.158 371.484 120.581 371.484 118.936V102.206C371.486 101.39 371.327 100.581 371.015 99.8268C370.704 99.0723 370.247 98.3868 369.671 97.8093C369.094 97.2319 368.409 96.774 367.655 96.4619C366.9 96.1499 366.092 95.9896 365.276 95.9905Z" fill="#2985C1"/>
<path d="M321.528 123.773H319.916C319.733 123.773 319.558 123.846 319.429 123.975C319.3 124.104 319.227 124.28 319.227 124.462C319.227 124.645 319.3 124.82 319.429 124.95C319.558 125.079 319.733 125.151 319.916 125.151H321.528C321.711 125.151 321.886 125.079 322.016 124.95C322.145 124.82 322.218 124.645 322.218 124.462C322.218 124.28 322.145 124.104 322.016 123.975C321.886 123.846 321.711 123.773 321.528 123.773Z" fill="#2985C1"/>
<path d="M265.542 105.472C264.435 105.47 263.353 105.797 262.432 106.411C261.511 107.025 260.792 107.899 260.368 108.921C259.943 109.943 259.832 111.069 260.047 112.154C260.262 113.24 260.794 114.238 261.576 115.021C262.359 115.804 263.356 116.338 264.441 116.554C265.527 116.771 266.652 116.66 267.675 116.237C268.697 115.814 269.572 115.096 270.187 114.176C270.802 113.256 271.13 112.174 271.13 111.067C271.13 109.584 270.542 108.162 269.494 107.113C268.446 106.064 267.025 105.474 265.542 105.472ZM265.542 115.277C264.707 115.278 263.891 115.032 263.197 114.569C262.502 114.106 261.96 113.448 261.64 112.677C261.32 111.906 261.236 111.058 261.399 110.239C261.561 109.42 261.963 108.668 262.553 108.078C263.143 107.488 263.896 107.086 264.714 106.924C265.533 106.761 266.381 106.845 267.152 107.165C267.923 107.485 268.581 108.027 269.044 108.722C269.507 109.416 269.754 110.232 269.752 111.067C269.75 112.183 269.306 113.253 268.517 114.042C267.728 114.831 266.658 115.275 265.542 115.277Z" fill="#2985C1"/>
<path d="M280.233 105.472C279.126 105.47 278.044 105.797 277.123 106.411C276.202 107.025 275.483 107.899 275.059 108.921C274.634 109.943 274.522 111.069 274.738 112.154C274.953 113.24 275.485 114.238 276.267 115.021C277.049 115.804 278.046 116.338 279.132 116.554C280.217 116.771 281.343 116.66 282.366 116.237C283.388 115.814 284.263 115.096 284.878 114.176C285.493 113.256 285.821 112.174 285.821 111.067C285.821 109.584 285.233 108.162 284.185 107.113C283.137 106.064 281.716 105.474 280.233 105.472ZM280.233 115.277C279.398 115.278 278.582 115.032 277.888 114.569C277.193 114.106 276.651 113.448 276.331 112.677C276.011 111.906 275.927 111.058 276.09 110.239C276.252 109.42 276.654 108.668 277.244 108.078C277.834 107.488 278.586 107.086 279.405 106.924C280.224 106.761 281.072 106.845 281.843 107.165C282.614 107.485 283.272 108.027 283.735 108.722C284.198 109.416 284.444 110.232 284.443 111.067C284.441 112.183 283.997 113.253 283.208 114.042C282.419 114.831 281.349 115.275 280.233 115.277Z" fill="#2985C1"/>
<path d="M295.523 105.417C294.418 105.424 293.339 105.758 292.423 106.377C291.508 106.997 290.796 107.873 290.378 108.897C289.96 109.92 289.854 111.044 290.075 112.127C290.295 113.211 290.831 114.204 291.616 114.983C292.4 115.762 293.398 116.291 294.483 116.503C295.568 116.716 296.691 116.602 297.711 116.176C298.732 115.751 299.603 115.033 300.215 114.112C300.828 113.192 301.154 112.111 301.153 111.006C301.152 110.268 301.005 109.539 300.721 108.858C300.438 108.178 300.022 107.561 299.499 107.041C298.976 106.522 298.356 106.111 297.673 105.833C296.991 105.554 296.26 105.413 295.523 105.417ZM295.523 115.223C294.691 115.216 293.879 114.963 293.19 114.495C292.501 114.028 291.966 113.367 291.652 112.596C291.338 111.824 291.259 110.978 291.426 110.162C291.592 109.346 291.997 108.598 292.588 108.012C293.179 107.425 293.93 107.027 294.747 106.867C295.564 106.707 296.411 106.793 297.179 107.113C297.948 107.433 298.604 107.974 299.066 108.666C299.528 109.359 299.774 110.173 299.775 111.006C299.775 111.562 299.664 112.113 299.45 112.627C299.236 113.141 298.923 113.608 298.527 114C298.132 114.392 297.663 114.702 297.147 114.911C296.632 115.121 296.08 115.227 295.523 115.223Z" fill="#2985C1"/>
<path d="M356.186 105.444H313.258C312.507 105.418 311.758 105.543 311.057 105.812C310.356 106.081 309.716 106.489 309.175 107.011C308.635 107.532 308.205 108.158 307.911 108.849C307.618 109.541 307.466 110.284 307.466 111.036C307.466 111.787 307.618 112.531 307.911 113.222C308.205 113.914 308.635 114.539 309.175 115.061C309.716 115.583 310.356 115.99 311.057 116.259C311.758 116.529 312.507 116.654 313.258 116.627H356.186C356.937 116.654 357.685 116.529 358.386 116.259C359.088 115.99 359.728 115.583 360.269 115.061C360.809 114.539 361.239 113.914 361.533 113.222C361.826 112.531 361.978 111.787 361.978 111.036C361.978 110.284 361.826 109.541 361.533 108.849C361.239 108.158 360.809 107.532 360.269 107.011C359.728 106.489 359.088 106.081 358.386 105.812C357.685 105.543 356.937 105.418 356.186 105.444ZM313.258 115.249C312.69 115.272 312.124 115.18 311.592 114.979C311.061 114.777 310.576 114.471 310.166 114.077C309.757 113.684 309.431 113.211 309.208 112.689C308.985 112.166 308.87 111.604 308.87 111.036C308.87 110.468 308.985 109.905 309.208 109.383C309.431 108.86 309.757 108.388 310.166 107.994C310.576 107.601 311.061 107.294 311.592 107.093C312.124 106.891 312.69 106.799 313.258 106.822H356.186C356.753 106.799 357.32 106.891 357.851 107.093C358.382 107.294 358.868 107.601 359.277 107.994C359.687 108.388 360.013 108.86 360.236 109.383C360.459 109.905 360.574 110.468 360.574 111.036C360.574 111.604 360.459 112.166 360.236 112.689C360.013 113.211 359.687 113.684 359.277 114.077C358.868 114.471 358.382 114.777 357.851 114.979C357.32 115.18 356.753 115.272 356.186 115.249H313.258Z" fill="#2985C1"/>
<path d="M265.543 91.4145C265.36 91.4145 265.185 91.4871 265.055 91.6163C264.926 91.7455 264.854 91.9207 264.854 92.1036V96.4584C264.854 96.6411 264.926 96.8164 265.055 96.9456C265.185 97.0749 265.36 97.1475 265.543 97.1475C265.725 97.1475 265.901 97.0749 266.03 96.9456C266.159 96.8164 266.232 96.6411 266.232 96.4584V92.1036C266.232 91.9207 266.159 91.7455 266.03 91.6163C265.901 91.4871 265.725 91.4145 265.543 91.4145Z" fill="#2985C1"/>
<path d="M362.478 91.4145C362.296 91.4145 362.121 91.4871 361.992 91.6163C361.862 91.7455 361.79 91.9207 361.79 92.1036V96.4584C361.79 96.6411 361.862 96.8164 361.992 96.9456C362.121 97.0749 362.296 97.1475 362.478 97.1475C362.661 97.1475 362.837 97.0749 362.966 96.9456C363.095 96.8164 363.168 96.6411 363.168 96.4584V92.1036C363.168 91.9207 363.095 91.7455 362.966 91.6163C362.837 91.4871 362.661 91.4145 362.478 91.4145Z" fill="#2985C1"/>
<path d="M266.142 82.4588C265.035 82.4588 263.953 82.1307 263.033 81.5159C262.113 80.9011 261.396 80.0272 260.972 79.0048C260.549 77.9825 260.438 76.8575 260.654 75.7721C260.87 74.6868 261.403 73.6898 262.185 72.9074C262.968 72.1248 263.965 71.5919 265.05 71.3761C266.135 71.1602 267.26 71.271 268.283 71.6944C269.305 72.1179 270.179 72.8351 270.794 73.7552C271.408 74.6753 271.737 75.757 271.737 76.8637C271.737 78.3476 271.147 79.7708 270.098 80.8201C269.049 81.8693 267.625 82.4588 266.142 82.4588ZM266.142 72.6535C265.307 72.6535 264.492 72.901 263.798 73.3647C263.104 73.8284 262.564 74.4874 262.245 75.2584C261.926 76.0294 261.843 76.8776 262.006 77.6958C262.169 78.514 262.572 79.2654 263.162 79.8549C263.752 80.4444 264.505 80.8454 265.323 81.0075C266.142 81.1694 266.99 81.0849 267.76 80.7646C268.531 80.4444 269.189 79.9028 269.651 79.2084C270.114 78.514 270.36 77.698 270.359 76.8637C270.357 75.7465 269.912 74.6756 269.121 73.8862C268.33 73.0969 267.259 72.6535 266.142 72.6535Z" fill="#2985C1"/>
<path d="M295.523 82.4588C294.417 82.4588 293.335 82.1307 292.415 81.5159C291.495 80.9011 290.778 80.0272 290.354 79.0048C289.931 77.9825 289.82 76.8575 290.036 75.7721C290.252 74.6868 290.785 73.6898 291.567 72.9074C292.349 72.1248 293.346 71.5919 294.432 71.3761C295.517 71.1602 296.642 71.271 297.665 71.6944C298.687 72.1179 299.561 72.8351 300.176 73.7552C300.79 74.6753 301.118 75.757 301.118 76.8637C301.118 78.3476 300.529 79.7708 299.48 80.8201C298.43 81.8693 297.007 82.4588 295.523 82.4588ZM295.523 72.6535C294.689 72.6535 293.873 72.901 293.18 73.3647C292.486 73.8284 291.946 74.4874 291.627 75.2584C291.308 76.0294 291.225 76.8776 291.388 77.6958C291.551 78.514 291.954 79.2654 292.544 79.8549C293.134 80.4444 293.886 80.8454 294.705 81.0075C295.523 81.1694 296.371 81.0849 297.142 80.7646C297.912 80.4444 298.57 79.9028 299.033 79.2084C299.496 78.514 299.742 77.698 299.74 76.8637C299.739 75.7465 299.294 74.6756 298.503 73.8862C297.712 73.0969 296.641 72.6535 295.523 72.6535Z" fill="#2985C1"/>
<path d="M364.546 92.146H260.498C258.854 92.146 257.276 91.4927 256.113 90.3296C254.95 89.1666 254.297 87.5892 254.297 85.9445V69.2074C254.297 67.5626 254.95 65.9852 256.113 64.8222C257.276 63.6592 258.854 63.0059 260.498 63.0059H364.546C366.19 63.0059 367.768 63.6592 368.931 64.8222C370.094 65.9852 370.747 67.5626 370.747 69.2074V85.9376C370.748 86.7526 370.588 87.5598 370.277 88.313C369.966 89.0662 369.509 89.7507 368.933 90.3272C368.358 90.9038 367.674 91.3613 366.92 91.6733C366.168 91.9854 365.361 92.146 364.546 92.146ZM260.498 64.3701C259.219 64.3701 257.992 64.8783 257.088 65.7829C256.183 66.6875 255.675 67.9143 255.675 69.1936V85.9238C255.675 87.2031 256.183 88.4299 257.088 89.3345C257.992 90.2391 259.219 90.7473 260.498 90.7473H364.546C365.826 90.7473 367.052 90.2391 367.957 89.3345C368.861 88.4299 369.369 87.2031 369.369 85.9238V69.2074C369.369 67.9281 368.861 66.7012 367.957 65.7967C367.052 64.8921 365.826 64.3839 364.546 64.3839L260.498 64.3701Z" fill="#2985C1"/>
<path d="M280.832 82.4588C279.726 82.4588 278.644 82.1307 277.724 81.5159C276.804 80.9011 276.087 80.0272 275.663 79.0048C275.24 77.9825 275.129 76.8575 275.345 75.7721C275.561 74.6868 276.094 73.6898 276.876 72.9074C277.659 72.1248 278.656 71.5919 279.741 71.3761C280.826 71.1602 281.951 71.271 282.974 71.6944C283.996 72.1179 284.87 72.8351 285.485 73.7552C286.099 74.6753 286.428 75.757 286.428 76.8637C286.428 78.3476 285.838 79.7708 284.789 80.8201C283.739 81.8693 282.316 82.4588 280.832 82.4588ZM280.832 72.6535C279.998 72.6535 279.183 72.901 278.489 73.3647C277.795 73.8284 277.255 74.4874 276.936 75.2584C276.617 76.0294 276.534 76.8776 276.697 77.6958C276.86 78.514 277.263 79.2654 277.853 79.8549C278.444 80.4444 279.195 80.8454 280.014 81.0075C280.832 81.1694 281.681 81.0849 282.451 80.7646C283.221 80.4444 283.88 79.9028 284.342 79.2084C284.805 78.514 285.051 77.698 285.05 76.8637C285.048 75.7465 284.603 74.6756 283.812 73.8862C283.021 73.0969 281.95 72.6535 280.832 72.6535Z" fill="#2985C1"/>
</mask>
<g mask="url(#mask0_2008_701)">
<path fill-rule="evenodd" clip-rule="evenodd" d="M373.828 81.2027C370.163 82.4982 366.218 83.2031 362.109 83.2031C342.693 83.2031 326.953 67.4631 326.953 48.0469C326.953 40.6505 329.237 33.7876 333.139 28.125H251.953V127.734H373.828V81.2027Z" fill="url(#paint0_linear_2008_701)"/>
</g>
<defs>
<linearGradient id="paint0_linear_2008_701" x1="373.828" y1="28.125" x2="251.953" y2="127.734" gradientUnits="userSpaceOnUse">
<stop stop-color="#2985C1" stop-opacity="0.5"/>
<stop offset="0.271667" stop-color="#133F5B"/>
</linearGradient>
</defs>
</svg>
