<svg xmlns="http://www.w3.org/2000/svg" width="30" height="30" viewBox="0 0 38 38" fill="none">
  <g filter="url(#filter0_d_271_33)">
    <rect x="1" width="36" height="36" rx="5" fill="#F6F8F8"/>
  </g>
  <path d="M18.7087 26.275C16.4515 26.275 14.5245 25.49 12.928 23.9201C11.3314 22.3502 10.5332 20.4426 10.5332 18.1973V18.0163L9.75272 18.7967C9.55742 18.992 9.31412 19.0887 9.02283 19.0867C8.73152 19.0847 8.48822 18.9861 8.29292 18.7908C8.09764 18.5955 8 18.3522 8 18.0609C8 17.7696 8.09764 17.5263 8.29292 17.331L10.869 14.7489C11.0969 14.521 11.3641 14.4071 11.6707 14.4071C11.9772 14.4071 12.2444 14.521 12.4723 14.7489L15.0484 17.331C15.2437 17.5263 15.3413 17.7696 15.3413 18.0609C15.3413 18.3522 15.2437 18.5955 15.0484 18.7908C14.8531 18.9861 14.6088 19.0837 14.3155 19.0837C14.0222 19.0837 13.7779 18.9861 13.5826 18.7908L12.8082 18.0163V18.1793C12.8082 19.7942 13.3817 21.168 14.5288 22.3008C15.6759 23.4336 17.0692 24 18.7087 24C18.9674 24 19.2199 23.9843 19.4663 23.953C19.7127 23.9216 19.9569 23.8683 20.1989 23.7929C20.5181 23.7016 20.8237 23.708 21.1155 23.8119C21.4073 23.9159 21.6299 24.1089 21.7831 24.3908C21.9404 24.6853 21.9619 24.9807 21.8475 25.2769C21.7332 25.5731 21.5205 25.7708 21.2093 25.8701C20.806 26.0114 20.3944 26.1142 19.9744 26.1785C19.5545 26.2428 19.1326 26.275 18.7087 26.275ZM18.6326 12.275C18.3739 12.275 18.1214 12.2907 17.875 12.322C17.6286 12.3534 17.3844 12.4067 17.1424 12.4821C16.8232 12.5734 16.5145 12.567 16.2163 12.463C15.9181 12.3591 15.6924 12.1661 15.5391 11.8842C15.3819 11.6024 15.3604 11.3133 15.4747 11.0171C15.589 10.7209 15.7955 10.5232 16.094 10.4239C16.51 10.2826 16.9279 10.1766 17.3478 10.106C17.7678 10.0353 18.196 10 18.6326 10C20.8898 10 22.8177 10.785 24.4163 12.3549C26.0149 13.9248 26.8141 15.8324 26.8141 18.0777V18.2587L27.5886 17.4842C27.7839 17.2889 28.0272 17.1913 28.3185 17.1913C28.6098 17.1913 28.8531 17.2889 29.0484 17.4842C29.2437 17.6795 29.3413 17.9238 29.3413 18.2171C29.3413 18.5104 29.2437 18.7547 29.0484 18.95L26.4723 21.5261C26.2444 21.754 25.9782 21.8669 25.6737 21.8649C25.3691 21.863 25.1029 21.75 24.875 21.5261L22.2989 18.944C22.1036 18.7487 22.006 18.5044 22.006 18.2111C22.006 17.9178 22.1036 17.6736 22.2989 17.4783C22.4942 17.283 22.7385 17.1853 23.0318 17.1853C23.3251 17.1853 23.5694 17.283 23.7647 17.4783L24.5391 18.2587V18.0956C24.5391 16.4808 23.9646 15.107 22.8155 13.9742C21.6664 12.8414 20.2721 12.275 18.6326 12.275Z" fill="#313265"/>
  <defs>
    <filter id="filter0_d_271_33" x="0" y="0" width="38" height="38" filterUnits="userSpaceOnUse" color-interpolation-filters="sRGB">
      <feFlood flood-opacity="0" result="BackgroundImageFix"/>
      <feColorMatrix in="SourceAlpha" type="matrix" values="0 0 0 0 0 0 0 0 0 0 0 0 0 0 0 0 0 0 127 0" result="hardAlpha"/>
      <feOffset dy="1"/>
      <feGaussianBlur stdDeviation="0.5"/>
      <feComposite in2="hardAlpha" operator="out"/>
      <feColorMatrix type="matrix" values="0 0 0 0 0 0 0 0 0 0 0 0 0 0 0 0 0 0 0.25 0"/>
      <feBlend mode="normal" in2="BackgroundImageFix" result="effect1_dropShadow_271_33"/>
      <feBlend mode="normal" in="SourceGraphic" in2="effect1_dropShadow_271_33" result="shape"/>
    </filter>
  </defs>
</svg>